<?xml version="1.0" encoding="iso-8859-1"?>
<!-- Generator: Adobe Illustrator 19.0.0, SVG Export Plug-In . SVG Version: 6.00 Build 0)  -->
<svg version="1.1" id="Layer_1" xmlns="http://www.w3.org/2000/svg" xmlns:xlink="http://www.w3.org/1999/xlink" x="0px" y="0px"
	 viewBox="0 0 512 512" style="enable-background:new 0 0 512 512;" xml:space="preserve">
<g transform="translate(1 1)">
	<g>
		<path style="fill:#1CD759;" d="M361.667,306.2c0,58.027-49.493,76.8-76.8,76.8C284.867,347.16,303.64,306.2,361.667,306.2"/>
		<path style="fill:#1CD759;" d="M156.867,229.4c0,58.027,49.493,76.8,76.8,76.8C233.667,270.36,214.893,229.4,156.867,229.4"/>
	</g>
	<path style="fill:#54C9FD;" d="M325.827,82.627c-3.413,0-8.533,0.853-8.533,0.853c11.093-11.093,15.36-28.16,1.707-41.813
		c-14.507-14.507-29.867-8.533-40.96,1.707c0,0,0.853-5.12,0.853-8.533c0-14.507-11.947-27.307-28.16-27.307
		s-27.307,12.8-27.307,28.16c0,3.413,0.853,8.533,0.853,8.533c-11.093-11.093-28.16-16.213-41.813-2.56
		c-14.507,14.507-8.533,30.72,1.707,41.813c0,0-5.12-0.853-8.533-0.853c-14.507,0-27.307,11.947-27.307,27.307
		s12.8,28.16,28.16,28.16c3.413,0,8.533-0.853,8.533-0.853c-11.093,11.093-16.213,27.307-2.56,40.96s30.72,9.387,41.813-1.707
		c0,0-0.853,5.12-0.853,8.533c0,15.36,12.8,27.307,28.16,27.307s28.16-11.947,28.16-27.307c0-3.413-0.853-8.533-0.853-8.533
		c11.093,11.093,27.307,14.507,40.96,1.707c13.653-13.653,9.387-29.867-1.707-40.96c0,0,5.12,0.853,8.533,0.853
		c15.36,0,27.307-12.8,27.307-28.16S341.187,82.627,325.827,82.627"/>
	<path style="fill:#33A9F8;" d="M353.133,109.933c0-15.36-11.947-28.16-27.307-28.16c-3.413,0-8.533,0.853-8.533,0.853
		c11.093-10.24,15.36-27.307,1.707-40.96c-10.24-10.24-22.187-10.24-31.573-5.12c1.707,1.707,4.267,3.413,5.973,5.12
		c13.653,13.653,9.387,30.72-1.707,41.813c0,0,5.12-0.853,8.533-0.853c15.36,0,27.307,12.8,27.307,28.16s-11.947,28.16-27.307,28.16
		c-3.413,0-8.533-0.853-8.533-0.853c11.093,11.093,15.36,27.307,1.707,40.96c-2.56,2.56-4.267,3.413-6.827,5.12
		c10.24,5.12,22.187,5.12,32.427-5.12c13.653-13.653,9.387-29.867-1.707-40.96c0,0,5.12,0.853,8.533,0.853
		C341.187,138.093,353.133,126.147,353.133,109.933"/>
	<path style="fill:#FCC309;" d="M276.333,109.933c0-14.507-11.093-25.6-25.6-25.6s-25.6,11.093-25.6,25.6s11.093,25.6,25.6,25.6
		S276.333,124.44,276.333,109.933"/>
	<path d="M258.413,418.84c-2.56,0-5.973-1.707-7.68-4.267c-2.56-4.267-0.853-8.533,3.413-11.093
		c16.213-9.387,23.893-24.747,23.893-25.6c1.707-4.267,6.827-5.973,10.24-4.267c4.267,1.707,5.973,6.827,4.267,10.24
		c0,0.853-9.387,20.48-29.867,31.573C261.827,417.987,260.12,418.84,258.413,418.84z"/>
	<path d="M250.733,511C250.733,511,249.88,511,250.733,511c-5.12-0.853-9.387-4.267-8.533-9.387
		c8.533-83.627,13.653-227.84,0.853-286.72c-0.853-4.267,1.707-9.387,6.827-10.24c4.267-0.853,9.387,1.707,10.24,6.827
		c14.507,64,7.68,213.333,0,291.84C258.413,507.587,255,511,250.733,511z"/>
	<path d="M250.733,144.067c-18.773,0-34.133-15.36-34.133-34.133S231.96,75.8,250.733,75.8s34.133,15.36,34.133,34.133
		S269.507,144.067,250.733,144.067z M250.733,92.867c-9.387,0-17.067,7.68-17.067,17.067S241.347,127,250.733,127
		s17.067-7.68,17.067-17.067S260.12,92.867,250.733,92.867z"/>
	<path d="M250.733,220.867c-17.92,0-32.427-11.947-35.84-28.16c-12.8,5.12-27.307,3.413-39.253-8.533
		c-10.24-10.24-11.947-21.333-11.093-29.013c0-3.413,1.707-6.827,2.56-9.387c-15.36-3.413-27.307-17.92-27.307-35.84
		c0-17.067,11.947-32.427,28.16-35.84c-0.853-2.56-1.707-5.973-2.56-9.387c-0.853-7.68,0-18.773,11.093-29.013
		c10.24-10.24,21.333-11.947,29.013-11.093c3.413,0,6.827,1.707,10.24,2.56C219.16,10.947,233.667-1,250.733-1
		s31.573,11.947,35.84,28.16c12.8-5.973,27.307-2.56,38.4,8.533c10.24,10.24,11.947,21.333,11.093,29.013
		c0,3.413-0.853,6.827-2.56,10.24c16.213,3.413,28.16,17.92,28.16,34.987c0,17.92-11.947,32.427-28.16,35.84
		c1.707,3.413,1.707,6.827,2.56,10.24c0.853,7.68-0.853,17.92-11.093,28.16c-11.093,11.093-24.747,13.653-38.4,8.533
		C283.16,208.92,268.653,220.867,250.733,220.867z M224.28,167.96c1.707,0,2.56,0,4.267,0.853c2.56,1.707,5.12,4.267,4.267,10.24
		c0,0.853-0.853,4.267-0.853,5.12c0,10.24,8.533,18.773,19.627,18.773c11.093,0,19.627-8.533,19.627-18.773
		c0-1.707-0.853-4.267-0.853-5.12c-0.853-5.973,1.707-8.533,4.267-10.24c3.413-1.707,7.68-0.853,10.24,1.707
		c2.56,2.56,16.213,14.507,29.013,1.707c4.267-4.267,6.827-9.387,5.973-14.507c-0.853-5.12-3.413-10.24-7.68-14.507
		c-2.56-2.56-3.413-6.827-1.707-10.24c1.707-2.56,4.267-5.12,10.24-4.267c0.853,0,4.267,0.853,5.12,0.853
		c10.24,0,18.773-8.533,18.773-19.627s-8.533-19.627-18.773-19.627c-1.707,0-4.267,0.853-5.12,0.853
		c-5.973,0.853-8.533-1.707-10.24-4.267c-1.707-3.413-0.853-7.68,1.707-10.24C315.587,73.24,319,68.12,319,63
		c0.853-5.12-1.707-10.24-5.973-15.36c-4.267-4.267-9.387-6.827-14.507-5.973c-5.12,0.853-10.24,3.413-14.507,8.533
		c-2.56,2.56-6.827,3.413-10.24,1.707c-2.56-1.707-5.12-4.267-4.267-10.24c0-0.853,0.853-4.267,0.853-5.12
		c0-11.947-8.533-20.48-19.627-20.48s-19.627,8.533-19.627,19.627c0,1.707,0.853,4.267,0.853,5.12
		c1.707,5.973-0.853,9.387-3.413,10.24c-3.413,1.707-7.68,1.707-10.24-0.853c-4.267-5.12-10.24-7.68-14.507-8.533
		c-5.973-0.853-11.093,1.707-15.36,5.973c-4.267,5.12-6.827,9.387-5.973,15.36c0.853,4.267,3.413,9.387,8.533,14.507
		c2.56,2.56,2.56,6.827,0.853,10.24c-0.853,2.56-4.267,5.12-10.24,3.413c-0.853,0-4.267-0.853-5.12-0.853
		c-11.093,0.853-19.627,9.387-19.627,19.627s8.533,19.627,19.627,19.627c1.707,0,4.267-0.853,5.12-0.853
		c5.973-0.853,9.387,1.707,10.24,4.267c1.707,3.413,0.853,7.68-1.707,10.24c-4.267,4.267-6.827,9.387-7.68,14.507
		c-0.853,5.12,0.853,10.24,5.973,14.507c10.24,10.24,22.187,5.973,29.867-1.707C220.013,168.813,221.72,167.96,224.28,167.96z"/>
	<path d="M284.867,391.533c-5.12,0-8.533-3.413-8.533-8.533c0-39.253,22.187-85.333,85.333-85.333c5.12,0,8.533,3.413,8.533,8.533
		C370.2,368.493,318.147,391.533,284.867,391.533z M352.28,314.733c-46.08,4.267-56.32,38.4-58.88,58.88
		C314.733,370.2,348.867,356.547,352.28,314.733z"/>
	<path d="M259.267,340.333c-2.56,0-5.12-1.707-6.827-4.267c-11.093-17.067-22.187-22.187-22.187-23.04
		c-4.267-1.707-5.973-6.827-4.267-11.093s6.827-5.973,11.093-4.267c1.707,0.853,15.36,7.68,29.013,29.013
		c2.56,4.267,1.707,9.387-2.56,11.947C262.68,340.333,260.973,340.333,259.267,340.333z"/>
	<path d="M233.667,314.733c-33.28,0-85.333-23.04-85.333-85.333c0-5.12,3.413-8.533,8.533-8.533
		c63.147,0,85.333,46.08,85.333,85.333C242.2,311.32,238.787,314.733,233.667,314.733z M166.253,237.933
		c4.267,41.813,38.4,55.467,58.88,58.88C222.573,277.187,212.333,242.2,166.253,237.933z"/>
</g>
<g>
</g>
<g>
</g>
<g>
</g>
<g>
</g>
<g>
</g>
<g>
</g>
<g>
</g>
<g>
</g>
<g>
</g>
<g>
</g>
<g>
</g>
<g>
</g>
<g>
</g>
<g>
</g>
<g>
</g>
</svg>
