<?xml version="1.0" encoding="iso-8859-1"?>
<!-- Generator: Adobe Illustrator 19.0.0, SVG Export Plug-In . SVG Version: 6.00 Build 0)  -->
<svg version="1.1" id="Layer_1" xmlns="http://www.w3.org/2000/svg" xmlns:xlink="http://www.w3.org/1999/xlink" x="0px" y="0px"
	 viewBox="0 0 504.3 504.3" style="enable-background:new 0 0 504.3 504.3;" xml:space="preserve">
<g transform="translate(10)">
	<g>
		<path style="fill:#50DD8E;" d="M412.9,286.7V244h-42.7c0,0-41-1.7-68.3,25.6s-25.6,68.3-25.6,68.3v42.7H319c0,0,41,1.7,68.3-25.6
			C414.6,327.6,412.9,286.7,412.9,286.7z"/>
		<path style="fill:#50DD8E;" d="M182.5,303.7c-27.3-27.3-68.3-25.6-68.3-25.6H71.5v42.7c0,0-1.7,41,25.6,68.3s68.3,25.6,68.3,25.6
			h42.7V372C208.1,372,209.8,331.1,182.5,303.7z"/>
	</g>
	<path style="fill:#FF7474;" d="M301.9,5.1c-23,0-44.4,9.4-59.7,24.7c-15.4-15.3-36.7-24.7-59.7-24.7c-46.9,0-85.3,38.4-85.3,85.3
		s34.1,76.8,34.1,76.8l110.9,110.9l93.9-93.9c0,0,51.2-46.9,51.2-93.9C387.3,43.5,348.9,5.1,301.9,5.1z"/>
</g>
<path style="fill:#51565F;" d="M499.7,504.3H363.1c-2.6,0-4.3-1.7-4.3-4.3c0-2.6,1.7-4.3,4.3-4.3h136.5c2.6,0,4.3,1.7,4.3,4.3
	C503.9,502.6,502.2,504.3,499.7,504.3z M329,504.3h-17.1c-2.6,0-4.3-1.7-4.3-4.3c0-2.6,1.7-4.3,4.3-4.3H329c2.6,0,4.3,1.7,4.3,4.3
	C333.3,502.6,331.6,504.3,329,504.3z M277.8,504.3H158.3c-2.6,0-4.3-1.7-4.3-4.3c0-2.6,1.7-4.3,4.3-4.3h89.6V279.8l-110-110
	c-0.9-0.9-35-31.6-35-80.2C102.9,40.1,143,0,192.5,0c22.2,0,43.5,7.7,59.7,23c16.2-14.5,37.5-23,59.7-23c49.5,0,89.6,40.1,89.6,89.6
	c0,48.6-50.3,94.7-52.9,97.3l-68.2,68.2c-1.7,1.7-4.3,1.7-6,0s-1.7-4.3,0-6l68.3-68.3c0.9-0.9,50.3-46.1,50.3-90.5
	S356.3,9.2,311.9,9.2c-21.3,0-41.8,8.5-57.2,23c-1.7,1.7-4.3,1.7-6,0c-15.4-15.4-35.8-23-56.3-23c-44.4,0-81.1,36.7-81.1,81.1
	s32.4,73.4,32.4,73.4l110.9,110.9c0.9,0.9,0.9,1.7,0.9,3.4v217.6h21.3c2.6,0,4.3,1.7,4.3,4.3C281.2,502.6,280.4,504.3,277.8,504.3z
	 M124.2,504.3H4.7c-2.6,0-4.3-1.7-4.3-4.3c0-2.6,1.7-4.3,4.3-4.3h119.5c2.6,0,4.3,1.7,4.3,4.3S126.8,504.3,124.2,504.3z
	 M173.7,418.9c-8.5,0-44.4-1.7-69.1-27.3c-28.2-28.2-27.3-70-26.5-71.7v-42.7c0-2.6,1.7-4.3,4.3-4.3h42.7c1.7,0,42.7-1.7,70.8,26.5
	c28.2,28.2,27.3,70,27.3,71.7v41.8l0,0c0,0.9,0,1.7-0.9,1.7c-0.9,1.7-2.6,2.6-3.4,2.6h-42.7C175.4,418.9,174.5,418.9,173.7,418.9z
	 M85.8,282.4v38.4c0,0.9-0.9,39.3,24.7,64.9s64.9,24.7,64.9,24.7h32.4l-94.7-94.7c-0.9-0.9-0.9-1.7-0.9-3.4s0-2.6,0.9-3.4
	c1.7-1.7,4.3-1.7,6,0l94.7,94.7V372c0-0.9,0.9-39.3-24.7-64.9s-64.9-24.7-64.9-24.7H85.8z M330.7,384.8c-0.9,0-1.7,0-1.7,0h-42.7
	c-0.9,0-2.6,0-3.4-0.9c-0.9-0.9-0.9-1.7-0.9-3.4l0,0v-42.7c0-1.7-1.7-42.7,26.5-71.7c28.2-28.2,70-27.3,71.7-26.5h42.7
	c2.6,0,4.3,1.7,4.3,4.3v42.7c0,1.7,1.7,42.7-26.5,71.7C375.1,383.1,339.2,384.8,330.7,384.8z M296.6,376.3H329c0,0-0.9,0,0.9,0
	c6.8,0,41-0.9,64-24.7c25.6-25.6,24.7-64.9,24.7-64.9v-38.4h-38.4c-0.9,0-39.3-0.9-64.9,24.7s-24.7,64.9-24.7,64.9v32.4l94.7-94.7
	c1.7-1.7,4.3-1.7,6,0c0.9,0.9,0.9,1.7,0.9,3.4s0,2.6-0.9,3.4L296.6,376.3z M360.6,78.4c-1.7,0-3.4-0.9-4.3-2.6
	c-4.3-13.7-15.4-24.7-29-29c-2.6-0.9-3.4-3.4-2.6-5.1c0.9-2.6,3.4-3.4,5.1-2.6c16.2,6,29,18.8,34.1,35c0.9,2.6-0.9,4.3-2.6,5.1
	C361.4,78.4,360.6,78.4,360.6,78.4z"/>
<g>
</g>
<g>
</g>
<g>
</g>
<g>
</g>
<g>
</g>
<g>
</g>
<g>
</g>
<g>
</g>
<g>
</g>
<g>
</g>
<g>
</g>
<g>
</g>
<g>
</g>
<g>
</g>
<g>
</g>
</svg>
