<?xml version="1.0" encoding="iso-8859-1"?>
<!-- Generator: Adobe Illustrator 19.0.0, SVG Export Plug-In . SVG Version: 6.00 Build 0)  -->
<svg version="1.1" id="Layer_1" xmlns="http://www.w3.org/2000/svg" xmlns:xlink="http://www.w3.org/1999/xlink" x="0px" y="0px"
	 viewBox="0 0 512.001 512.001" style="enable-background:new 0 0 512.001 512.001;" xml:space="preserve">
<path style="fill:#F7931E;" d="M134.788,82.169c-12.768-11.496-32.02-11.22-44.448,0.129c-9.798-13.684-28.571-17.957-43.45-9.366
	s-20.565,26.986-13.613,42.312c-16.042,5.089-25.907,21.623-22.335,38.429s19.309,27.898,36.034,26.022
	c-0.116,16.829,12.56,31.321,29.647,33.117s32.499-9.744,35.884-26.229c15.969,5.311,33.669-2.266,40.657-17.962
	c6.988-15.696,0.776-33.919-13.857-42.233C149.292,112.84,147.556,93.665,134.788,82.169z"/>
<circle style="fill:#CCCCCC;" cx="84.477" cy="138.041" r="16.554"/>
<path style="fill:#F7931E;" d="M327.424,87.659c-5.309-16.339-22.12-25.726-38.557-22.113
	c-1.643-16.749-15.764-29.836-32.946-29.836s-31.303,13.088-32.946,29.836c-16.437-3.613-33.248,5.773-38.557,22.113
	c-5.309,16.34,2.774,33.815,18.195,40.553c-8.516,14.516-4.783,33.405,9.116,43.504c13.9,10.099,33.016,7.811,44.191-4.773
	c11.174,12.584,30.291,14.872,44.191,4.773c13.9-10.099,17.632-28.987,9.116-43.504C324.65,121.474,332.733,103.998,327.424,87.659z
	"/>
<circle style="fill:#CCCCCC;" cx="255.927" cy="110.892" r="16.554"/>
<path style="fill:#F7931E;" d="M372.695,126.387c-14.633,8.314-20.845,26.537-13.857,42.233
	c6.988,15.696,24.688,23.273,40.657,17.962c3.385,16.485,18.797,28.025,35.884,26.229c17.087-1.796,29.763-16.287,29.647-33.117
	c16.725,1.876,32.462-9.217,36.034-26.022s-6.294-33.34-22.335-38.429c6.951-15.327,1.266-33.722-13.613-42.312
	c-14.879-8.59-33.653-4.317-43.449,9.366c-12.428-11.347-31.68-11.624-44.448-0.129C364.446,93.665,362.708,112.84,372.695,126.387z
	"/>
<circle style="fill:#CCCCCC;" cx="427.52" cy="138.041" r="16.554"/>
<path style="fill:#8C6239;" d="M112.199,330.451c0,80.546,65.295,145.841,145.841,145.841s145.841-65.295,145.841-145.841H112.199z"
	/>
<g>
	<path style="fill:#51B58B;" d="M386.923,284.178c0,0-46.645,13.646-55.757,22.758c-6.364,6.364-8.268,15.486-5.743,23.515h44.699
		C378.255,313.809,386.923,284.178,386.923,284.178z"/>
	<path style="fill:#51B58B;" d="M318.592,284.178c0,0-46.645,13.646-55.757,22.758c-6.364,6.364-8.268,15.486-5.743,23.515h44.699
		C309.924,313.809,318.592,284.178,318.592,284.178z"/>
	<path style="fill:#51B58B;" d="M181.214,306.936c-9.113-9.113-55.757-22.758-55.757-22.758s8.669,29.631,16.801,46.274h44.699
		C189.482,322.422,187.578,313.3,181.214,306.936z"/>
	<path style="fill:#51B58B;" d="M248.526,306.936c-9.113-9.113-55.757-22.758-55.757-22.758s8.669,29.631,16.801,46.274h44.699
		C256.794,322.422,254.89,313.3,248.526,306.936z"/>
</g>
<path d="M106.918,152.61c3.892-5.993,5.217-13.143,3.732-20.132s-5.604-12.982-11.598-16.874
	c-5.993-3.892-13.144-5.219-20.132-3.732c-6.99,1.486-12.983,5.604-16.875,11.598c-3.892,5.993-5.217,13.143-3.732,20.132
	s5.604,12.983,11.598,16.875c4.391,2.852,9.401,4.325,14.517,4.325c1.866,0,3.747-0.197,5.615-0.594
	C97.033,162.723,103.026,158.603,106.918,152.61z M89.763,141.575c-1.906,2.845-5.856,3.668-8.742,1.795
	c-2.957-1.919-3.775-6.01-1.779-8.922c1.96-2.86,5.972-3.612,8.836-1.645c2.564,1.761,3.44,5.196,2.147,7.954
	C90.092,141.04,89.936,141.313,89.763,141.575z"/>
<path d="M255.949,137.657c4.164,0,8.3-0.984,12.117-2.929c6.367-3.244,11.09-8.774,13.298-15.569
	c2.208-6.796,1.637-14.046-1.606-20.413c-3.244-6.367-8.774-11.09-15.569-13.298c-6.797-2.208-14.046-1.638-20.413,1.606l0,0
	c-13.143,6.696-18.387,22.838-11.691,35.982c3.244,6.367,8.774,11.09,15.57,13.298C250.376,137.219,253.169,137.657,255.949,137.657
	z M253.037,105.228c1.512-0.77,3.236-0.906,4.848-0.382c1.614,0.525,2.928,1.646,3.698,3.16c0.771,1.512,0.907,3.234,0.382,4.848
	c-0.525,1.614-1.646,2.928-3.16,3.698c-3.12,1.59-6.956,0.346-8.548-2.777C248.669,110.654,249.915,106.819,253.037,105.228z"/>
<path d="M491.124,109.722c3.449-17.76-4.555-36.179-20.913-45.624c-16.358-9.444-36.311-7.167-49.967,4.7
	c-15.824-8.767-35.816-6.847-49.852,5.792c-14.039,12.639-18.038,32.32-10.972,48.975c-13.229,12.341-17.579,31.947-9.898,49.203
	c6.029,13.543,18.095,22.546,31.72,25.032L326.912,291.9c0.858-2.78,1.385-4.573,1.469-4.86c1.046-3.577,0.058-7.44-2.576-10.075
	c-2.635-2.635-6.5-3.623-10.075-2.576c-8.942,2.616-34.044,10.298-49.608,18.357V185.784c4.662,1.665,9.566,2.511,14.494,2.511
	c8.858-0.001,17.787-2.73,25.492-8.329c15.281-11.102,21.316-30.257,16.03-47.56c14.446-10.89,20.823-29.934,14.986-47.899l0,0
	c-5.838-17.964-22.189-29.623-40.278-29.942C290.951,37.46,274.81,25.51,255.922,25.51s-35.03,11.95-40.923,29.054
	c-18.086,0.32-34.441,11.979-40.279,29.942c-5.837,17.965,0.541,37.009,14.986,47.899c-5.286,17.302,0.749,36.457,16.03,47.56
	c11.994,8.714,26.943,10.475,39.987,5.815v107.215c-15.522-8.15-41.057-15.964-50.091-18.607c-3.576-1.047-7.439-0.058-10.075,2.576
	c-2.634,2.635-3.623,6.499-2.576,10.075c0.057,0.195,0.317,1.08,0.747,2.501l-52.982-91.768
	c13.629-2.485,25.705-11.462,31.735-25.006c7.682-17.255,3.331-36.862-9.898-49.203c7.067-16.655,3.067-36.336-10.972-48.975l0,0
	c-14.036-12.64-34.027-14.56-49.852-5.793C78.102,56.93,58.15,54.653,41.79,64.097c-16.359,9.445-24.363,27.864-20.913,45.624
	C5.37,119.042-2.962,137.315,0.966,155.79c3.928,18.477,18.97,31.782,36.927,33.989c4.073,17.626,18.877,31.198,37.663,33.172
	c1.555,0.163,3.1,0.244,4.631,0.244c12.978,0,24.877-5.77,32.898-15.216l43.741,75.763c-11.626-4.29-23.062-7.761-28.506-9.353
	c-3.577-1.047-7.439-0.058-10.075,2.576c-2.634,2.635-3.623,6.499-2.576,10.075c0.272,0.931,5.183,17.641,11.165,33.211h-14.634
	c-5.633,0-10.199,4.566-10.199,10.199c0,86.04,70,156.04,156.04,156.04s156.04-70,156.04-156.04c0-5.633-4.566-10.199-10.199-10.199
	h-18.334c5.982-15.57,10.892-32.281,11.164-33.211c1.046-3.577,0.058-7.44-2.576-10.075c-2.635-2.635-6.5-3.623-10.075-2.576
	c-5.52,1.614-17.198,5.162-28.99,9.534l43.845-75.943c8.02,9.446,19.919,15.216,32.898,15.215c1.53,0,3.077-0.081,4.631-0.244
	c18.785-1.974,33.589-15.546,37.663-33.172c17.956-2.208,33-15.512,36.927-33.988C514.963,137.316,506.629,119.043,491.124,109.722z
	 M270.046,314.148c3.114-3.114,17.234-8.93,32.835-14.273c-2.255,6.626-4.938,14.018-7.653,20.378h-28.636
	C267.155,317.983,268.327,315.868,270.046,314.148z M217.726,163.464c-9.58-6.96-12.294-19.897-6.313-30.091
	c1.475-2.514,1.803-5.54,0.903-8.312c-0.901-2.772-2.945-5.027-5.616-6.194c-10.831-4.732-16.238-16.793-12.579-28.056
	c3.658-11.262,15.124-17.844,26.668-15.304c2.847,0.627,5.827,0.004,8.184-1.709c2.358-1.713,3.87-4.355,4.155-7.255
	c1.154-11.763,10.954-20.634,22.796-20.634s21.642,8.871,22.796,20.634c0.285,2.901,1.797,5.542,4.155,7.255
	c2.358,1.712,5.335,2.337,8.184,1.709c11.545-2.535,23.008,4.042,26.668,15.304c3.659,11.261-1.749,23.323-12.579,28.056
	c-2.671,1.168-4.716,3.422-5.616,6.194c-0.901,2.772-0.572,5.798,0.903,8.312c5.981,10.195,3.267,23.132-6.314,30.091
	c-9.58,6.961-22.722,5.545-30.57-3.293c-1.935-2.179-4.711-3.427-7.627-3.427c-2.916,0-5.691,1.247-7.627,3.427
	C240.448,169.008,227.306,170.425,217.726,163.464z M241.314,314.148c1.721,1.721,2.891,3.836,3.454,6.105h-28.635
	c-2.713-6.356-5.397-13.751-7.652-20.377C224.083,305.219,238.202,311.034,241.314,314.148z M77.688,202.667
	c-11.776-1.237-20.596-11.084-20.514-22.903c0.02-2.915-1.208-5.699-3.374-7.649c-1.883-1.696-4.317-2.62-6.824-2.62
	c-0.377,0-0.758,0.021-1.137,0.063c-11.748,1.318-22.461-6.425-24.923-18.007c-2.462-11.583,4.177-23.012,15.444-26.587
	c2.779-0.881,5.047-2.91,6.233-5.573c1.185-2.663,1.175-5.706-0.03-8.361c-4.882-10.764-0.83-23.346,9.425-29.267
	c10.257-5.919,23.178-3.138,30.058,6.472c1.697,2.37,4.327,3.901,7.226,4.206c2.896,0.304,5.79-0.646,7.943-2.612
	c8.729-7.969,21.947-8.004,30.746-0.081l0,0c8.799,7.923,10.148,21.073,3.133,30.586c-1.73,2.347-2.373,5.321-1.766,8.172
	c0.606,2.851,2.403,5.307,4.938,6.747c10.277,5.839,14.394,18.399,9.579,29.217c-4.816,10.818-16.906,16.163-28.122,12.432
	c-2.766-0.921-5.794-0.613-8.318,0.845c-2.524,1.457-4.305,3.925-4.891,6.781C100.139,196.108,89.454,203.91,77.688,202.667z
	 M141.17,299.876c15.601,5.343,29.72,11.158,32.833,14.272c0.406,0.405,0.775,0.836,1.119,1.283l1.706,2.956
	c0.253,0.608,0.471,1.229,0.629,1.867h-28.635C146.109,313.897,143.425,306.503,141.17,299.876z M258.04,466.094
	c-54.003,0-100.728-31.723-122.536-77.51h139.874c5.633,0,10.199-4.566,10.199-10.199s-4.566-10.199-10.199-10.199H127.745
	c-2.565-8.844-4.26-18.055-4.968-27.536h19.482h44.699h22.613h44.699h2.824h44.699h23.632h44.699h23.181
	C388.075,410.702,329.406,466.094,258.04,466.094z M363.559,320.253h-28.636c0.563-2.269,1.734-4.385,3.454-6.105
	c3.114-3.114,17.234-8.93,32.835-14.273C368.957,306.501,366.274,313.893,363.559,320.253z M491.083,151.551
	c-2.462,11.583-13.187,19.326-24.923,18.007c-2.895-0.322-5.794,0.607-7.961,2.557c-2.166,1.951-3.394,4.735-3.374,7.649
	c0.083,11.819-8.737,21.665-20.514,22.903c-11.769,1.237-22.449-6.559-24.827-18.137c-0.586-2.856-2.367-5.324-4.891-6.781
	c-1.568-0.905-3.328-1.367-5.099-1.367c-1.082,0-2.169,0.172-3.219,0.521c-11.216,3.73-23.305-1.614-28.121-12.432
	c-4.817-10.818-0.699-23.378,9.579-29.217c2.534-1.44,4.332-3.896,4.938-6.747c0.606-2.852-0.038-5.825-1.766-8.172
	c-7.014-9.513-5.666-22.663,3.134-30.586c8.799-7.924,22.017-7.89,30.746,0.081c2.153,1.965,5.045,2.915,7.943,2.612
	c2.898-0.305,5.529-1.836,7.226-4.206c6.88-9.61,19.803-12.393,30.058-6.472c10.256,5.921,14.307,18.503,9.425,29.267
	c-1.204,2.655-1.215,5.698-0.03,8.361c1.186,2.663,3.454,4.691,6.233,5.573C486.906,128.538,493.545,139.967,491.083,151.551z"/>
<path d="M433.082,111.872c-6.991-1.488-14.14-0.161-20.132,3.732c-5.993,3.892-10.112,9.885-11.598,16.874
	c-1.486,6.989-0.16,14.139,3.732,20.132c3.892,5.993,9.885,10.112,16.875,11.598c1.869,0.398,3.749,0.594,5.615,0.594
	c5.115,0,10.126-1.474,14.517-4.325c5.993-3.892,10.112-9.885,11.598-16.875c1.486-6.99,0.16-14.139-3.732-20.132
	C446.065,117.476,440.072,113.358,433.082,111.872z M433.736,139.361c-0.353,1.66-1.331,3.084-2.755,4.009
	c-1.424,0.925-3.121,1.24-4.782,0.886c-1.66-0.353-3.084-1.332-4.009-2.756c-1.908-2.939-1.07-6.883,1.868-8.791
	c1.043-0.677,2.233-1.027,3.448-1.027c0.444,0,0.89,0.046,1.334,0.141c1.66,0.353,3.084,1.331,4.009,2.755
	C433.775,136.002,434.089,137.701,433.736,139.361z"/>
<path d="M354.928,368.186h-40.795c-5.633,0-10.199,4.566-10.199,10.199s4.566,10.199,10.199,10.199h40.795
	c5.633,0,10.199-4.566,10.199-10.199S360.56,368.186,354.928,368.186z"/>
<g>
</g>
<g>
</g>
<g>
</g>
<g>
</g>
<g>
</g>
<g>
</g>
<g>
</g>
<g>
</g>
<g>
</g>
<g>
</g>
<g>
</g>
<g>
</g>
<g>
</g>
<g>
</g>
<g>
</g>
</svg>
