<?xml version="1.0" encoding="iso-8859-1"?>
<!-- Generator: Adobe Illustrator 19.0.0, SVG Export Plug-In . SVG Version: 6.00 Build 0)  -->
<svg version="1.1" id="Layer_1" xmlns="http://www.w3.org/2000/svg" xmlns:xlink="http://www.w3.org/1999/xlink" x="0px" y="0px"
	 viewBox="0 0 508.022 508.022" style="enable-background:new 0 0 508.022 508.022;" xml:space="preserve">
<path style="fill:#FFFFFF;" d="M199.061,241.522h-17.8c16.5,22.3,42.8,36.8,72.5,36.8c49.8,0,90.3-40.5,90.3-90.3v-103l-81.8,60.9
	c-5,3.7-11.8,3.7-16.8,0l-82-60.9v70.5h63.8c7.8,0,14.1,6.3,14.1,14.1s-6.3,14.1-14.1,14.1h-63.8v4.3c0,8.8,1.3,17.3,3.7,25.3h31.9
	c7.8,0,14.1,6.3,14.1,14.1C213.161,235.222,206.861,241.522,199.061,241.522z"/>
<path style="fill:#56ACE0;" d="M253.761,250.122c-34.2,0-62.1-27.8-62.1-62.1v-46.9l62.1,46.2l62.1-46.2v46.9
	C315.861,222.322,287.961,250.122,253.761,250.122z"/>
<path style="fill:#FFFFFF;" d="M241.361,305.822v174h24.8v-174C257.861,306.722,249.661,306.822,241.361,305.822z"/>
<path style="fill:#194F82;" d="M455.461,315.522c-15-4.2-30.1-6.3-44.9-6.3c-48.7,0-90.2,22.3-116.2,58.8v-68.7
	c45.4-16.6,77.9-60.1,77.9-111.2v-131.2c-1-12.6-11.9-18.2-22.5-11.3l-35.6,26.5l-49-66c-6.7-8.8-18-7.5-22.6,0l-49.1,66l-35.6-26.5
	c-10-6.7-21.9-0.6-22.5,11.3v131.1c0,51.1,32.5,94.5,77.9,111.2v68.1c-26.1-36.1-67.4-58.1-115.8-58.1c-14.8,0-29.9,2.1-44.9,6.3
	c-6.6,1.8-10.9,8.1-10.3,14.9c7.7,80.3,67,136.4,144.3,136.4c8.8,0,17.7-0.8,26.6-2.3v29.4c0,7.8,6.3,14.1,14.1,14.1h53
	c7.8,0,14.1-6.3,14.1-14.1v-29.5c9.1,1.5,18.1,2.4,27.1,2.4c77.3,0,136.7-56.1,144.3-136.4
	C466.361,323.622,462.061,317.322,455.461,315.522z M186.561,438.622c-58.3,0-103.9-40-114.6-98.8c8.6-1.6,17.1-2.5,25.4-2.5
	c58.3,0,103.9,40,114.6,98.8C203.461,437.822,194.861,438.622,186.561,438.622z M253.761,38.222l37.7,50.8l-37.7,28l-37.8-28.1
	L253.761,38.222z M266.161,479.822h-24.8v-173.9c4.1,0.4,8.2,0.7,12.4,0.7c4.2,0,8.3-0.2,12.4-0.7V479.822z M253.761,278.322
	c-29.7,0-56.1-14.5-72.5-36.8h17.8c7.8,0,14.1-6.3,14.1-14.1s-6.3-14.1-14.1-14.1h-31.9c-2.4-8-3.7-16.5-3.7-25.3v-4.3h63.8
	c7.8,0,14.1-6.3,14.1-14.1s-6.3-14.1-14.1-14.1h-63.8v-70.5l81.8,60.9c5,3.7,11.8,3.7,16.8,0l82-60.9v103.1
	C344.061,237.822,303.561,278.322,253.761,278.322z M321.361,438.622c-8.4,0-16.9-0.8-25.4-2.5c10.7-58.7,56.3-98.8,114.6-98.8
	c8.4,0,16.9,0.8,25.4,2.5C425.361,398.622,379.661,438.622,321.361,438.622z"/>
<polygon style="fill:#56ACE0;" points="253.761,117.022 291.461,88.922 253.761,38.222 215.961,88.922 "/>
<g>
	<path style="fill:#FFC10D;" d="M410.561,337.422c-58.3,0-103.9,40-114.6,98.8c8.6,1.6,17.1,2.5,25.4,2.5
		c58.3,0,103.9-40,114.6-98.8C427.461,338.222,418.861,337.422,410.561,337.422z"/>
	<path style="fill:#FFC10D;" d="M97.361,337.422c-8.4,0-16.9,0.8-25.4,2.5c10.7,58.7,56.3,98.8,114.6,98.8c8.4,0,16.9-0.8,25.4-2.5
		C201.361,377.422,155.661,337.422,97.361,337.422z"/>
</g>
<g>
</g>
<g>
</g>
<g>
</g>
<g>
</g>
<g>
</g>
<g>
</g>
<g>
</g>
<g>
</g>
<g>
</g>
<g>
</g>
<g>
</g>
<g>
</g>
<g>
</g>
<g>
</g>
<g>
</g>
</svg>
