<?xml version="1.0" encoding="iso-8859-1"?>
<!-- Generator: Adobe Illustrator 18.0.0, SVG Export Plug-In . SVG Version: 6.00 Build 0)  -->
<!DOCTYPE svg PUBLIC "-//W3C//DTD SVG 1.1//EN" "http://www.w3.org/Graphics/SVG/1.1/DTD/svg11.dtd">
<svg version="1.1" id="Capa_1" xmlns="http://www.w3.org/2000/svg" xmlns:xlink="http://www.w3.org/1999/xlink" x="0px" y="0px"
	 viewBox="0 0 479.702 479.702" style="enable-background:new 0 0 479.702 479.702;" xml:space="preserve">
<g>
	<linearGradient id="SVGID_1_" gradientUnits="userSpaceOnUse" x1="17.0707" y1="387.3978" x2="225.4312" y2="267.1009">
		<stop  offset="0" style="stop-color:#9AE900"/>
		<stop  offset="0.7753" style="stop-color:#344F00"/>
	</linearGradient>
	<path style="fill:url(#SVGID_1_);" d="M192.172,310.382c0.49,6.06,2.67,11.69,6.18,16.36c-10.99,19.5-23.65,36.72-37.67,51.21
		c-33.81,34.97-73.81,52.5-118.95,52.16c-2.67-61.34,15.41-106.26,31.23-133.33c13.9-23.78,28.5-38.26,34.02-43.29
		c5.11,3.41,11.1,5.24,17.3,5.24c1.63,0,3.28-0.13,4.93-0.38c22.7-3.55,48.88-15.75,74.35-29.13
		C196.282,258.022,190.322,287.212,192.172,310.382z"/>
	<linearGradient id="SVGID_2_" gradientUnits="userSpaceOnUse" x1="174.4454" y1="460.0251" x2="261.7155" y2="308.869">
		<stop  offset="0" style="stop-color:#9AE900"/>
		<stop  offset="0.0972" style="stop-color:#96E300"/>
		<stop  offset="0.2316" style="stop-color:#8AD100"/>
		<stop  offset="0.3877" style="stop-color:#77B300"/>
		<stop  offset="0.5602" style="stop-color:#5C8B00"/>
		<stop  offset="0.7442" style="stop-color:#395700"/>
		<stop  offset="0.7699" style="stop-color:#344F00"/>
	</linearGradient>
	<path style="fill:url(#SVGID_2_);" d="M275.352,316.742c0.02,38.9-9.37,119.19-82.76,153.76c-15.11-28.63-23.48-58.3-24.94-88.26
		c13.53-14.21,25.8-30.86,36.53-49.57c1.64,1.27,3.42,2.41,5.33,3.37c4.6,2.31,9.54,3.46,14.46,3.46c5.92,0,11.82-1.67,17.08-4.96
		l0.55-0.35C252.412,327.422,263.682,321.602,275.352,316.742z"/>
	<linearGradient id="SVGID_3_" gradientUnits="userSpaceOnUse" x1="251.6884" y1="159.7984" x2="215.8352" y2="221.8979">
		<stop  offset="0" style="stop-color:#FCEE21"/>
		<stop  offset="0.2669" style="stop-color:#F9EC21"/>
		<stop  offset="0.4345" style="stop-color:#F1E320"/>
		<stop  offset="0.5749" style="stop-color:#E2D61E"/>
		<stop  offset="0.7001" style="stop-color:#CDC21B"/>
		<stop  offset="0.8152" style="stop-color:#B3A917"/>
		<stop  offset="0.9216" style="stop-color:#928A13"/>
		<stop  offset="1" style="stop-color:#756F0F"/>
	</linearGradient>
	<path style="fill:url(#SVGID_3_);" d="M269.132,185.022c1.56,9.45-0.66,18.94-6.24,26.72c-2.79,3.89-6.26,7.12-10.2,9.57
		c-3.95,2.46-8.38,4.13-13.1,4.91c-9.45,1.55-18.94-0.66-26.72-6.24s-12.93-13.86-14.48-23.31c-1.56-9.45,0.66-18.93,6.24-26.72
		c5.58-7.78,13.85-12.92,23.3-14.48c1.97-0.32,3.95-0.48,5.91-0.48c7.43,0,14.65,2.31,20.81,6.72
		C262.432,167.302,267.572,175.572,269.132,185.022z M257.062,207.552c9.21-12.84,6.25-30.79-6.59-40
		c-12.85-9.21-30.79-6.26-40.01,6.59c-4.46,6.22-6.23,13.81-4.99,21.37c1.25,7.55,5.36,14.17,11.58,18.63
		c5.05,3.62,10.89,5.36,16.67,5.36C242.652,219.502,251.462,215.352,257.062,207.552z"/>
	<linearGradient id="SVGID_4_" gradientUnits="userSpaceOnUse" x1="213.0909" y1="190.8491" x2="254.4162" y2="190.8491">
		<stop  offset="0" style="stop-color:#EDCF24"/>
		<stop  offset="0.3556" style="stop-color:#F3B41F"/>
		<stop  offset="0.9489" style="stop-color:#FF8015"/>
	</linearGradient>
	<path style="fill:url(#SVGID_4_);" d="M245.802,174.052c9.26,6.64,11.39,19.58,4.75,28.84c-6.64,9.26-19.58,11.39-28.84,4.75
		c-4.48-3.22-7.45-7.99-8.34-13.44c-0.9-5.44,0.38-10.91,3.6-15.4c4.03-5.62,10.38-8.61,16.82-8.61
		C237.962,170.192,242.172,171.442,245.802,174.052z"/>
	<linearGradient id="SVGID_5_" gradientUnits="userSpaceOnUse" x1="278.1544" y1="314.2111" x2="244.8558" y2="217.5048">
		<stop  offset="0" style="stop-color:#F58085"/>
		<stop  offset="0.3334" style="stop-color:#ED1C24"/>
		<stop  offset="0.5528" style="stop-color:#EB1C24"/>
		<stop  offset="0.6383" style="stop-color:#E41B23"/>
		<stop  offset="0.7005" style="stop-color:#D81921"/>
		<stop  offset="0.7513" style="stop-color:#C7171E"/>
		<stop  offset="0.7953" style="stop-color:#B0151B"/>
		<stop  offset="0.8344" style="stop-color:#951117"/>
		<stop  offset="0.8692" style="stop-color:#740E12"/>
		<stop  offset="0.8742" style="stop-color:#6F0D11"/>
	</linearGradient>
	<path style="fill:url(#SVGID_5_);" d="M334.382,257.172c5.09,6.48,6.41,14.99,3.51,22.77c-2.95,7.89-9.63,13.55-17.94,15.15
		l-0.41,0.08c-0.19,0.03-0.38,0.07-0.51,0.1c-29.1,5.62-56.58,16.43-81.73,32.17l-0.56,0.36c-7.19,4.5-16.03,4.91-23.64,1.09
		c-7.45-3.75-12.29-10.91-12.95-19.15c-1.81-22.65,4.37-51.97,11.75-80.89c5.99,3.46,12.63,5.43,19.46,5.79l-3.46,27.66
		c-0.28,2.19,1.28,4.19,3.47,4.47c0.17,0.02,0.34,0.03,0.5,0.03c1.99,0,3.71-1.48,3.97-3.51l3.62-28.97
		c0.48-0.07,0.95-0.13,1.43-0.21c5.06-0.83,9.85-2.51,14.21-4.93l15.3,21.76c0.78,1.1,2.02,1.7,3.28,1.7c0.79,0,1.59-0.24,2.29-0.73
		c1.81-1.27,2.25-3.77,0.97-5.58l-15.25-21.67c2.88-2.39,5.47-5.15,7.7-8.26c1.88-2.62,3.43-5.4,4.68-8.29
		C296.582,222.682,320.582,239.662,334.382,257.172z"/>
	<linearGradient id="SVGID_6_" gradientUnits="userSpaceOnUse" x1="321.2817" y1="210.7671" x2="341.5107" y2="210.7671">
		<stop  offset="0" style="stop-color:#EDCF24"/>
		<stop  offset="0.3556" style="stop-color:#F3B41F"/>
		<stop  offset="0.9489" style="stop-color:#FF8015"/>
	</linearGradient>
	<path style="fill:url(#SVGID_6_);" d="M337.332,202.572c4.52,3.27,5.53,9.6,2.26,14.12c-1.59,2.19-3.93,3.63-6.6,4.06
		c-2.66,0.43-5.34-0.21-7.53-1.8c-2.73-1.97-4.18-5.07-4.18-8.2c0-2.06,0.62-4.13,1.92-5.92c1.98-2.73,5.07-4.18,8.21-4.18
		C333.472,200.652,335.542,201.272,337.332,202.572z"/>
	<linearGradient id="SVGID_7_" gradientUnits="userSpaceOnUse" x1="430.3965" y1="263.0854" x2="293.0461" y2="183.7862">
		<stop  offset="0" style="stop-color:#9AE900"/>
		<stop  offset="0.1257" style="stop-color:#90DB00"/>
		<stop  offset="0.3652" style="stop-color:#77B500"/>
		<stop  offset="0.6909" style="stop-color:#4F7800"/>
		<stop  offset="0.8904" style="stop-color:#344F00"/>
	</linearGradient>
	<path style="fill:url(#SVGID_7_);" d="M366.792,176.662c34.95,15.93,58.64,41.01,70.46,74.55c-30.18,12.11-60.59,16.85-90.48,14.16
		c-0.96-4.71-3.01-9.2-6.11-13.14c-13.67-17.35-36.35-33.87-58.22-48.22l30.87,6.84c0.03,5.58,2.61,11.07,7.46,14.58
		c3.12,2.26,6.8,3.45,10.59,3.45c0.96,0,1.93-0.08,2.9-0.23c4.78-0.77,8.97-3.35,11.81-7.27c5.86-8.09,4.04-19.44-4.05-25.29
		c-8.09-5.86-19.44-4.05-25.3,4.04c-0.67,0.93-1.23,1.91-1.7,2.91l-29.34-6.5c22.46-7.78,44.44-16.56,61.19-27.53
		C353.802,171.232,360.502,173.782,366.792,176.662z"/>
	<linearGradient id="SVGID_8_" gradientUnits="userSpaceOnUse" x1="185.1583" y1="18.1197" x2="205.3917" y2="18.1197">
		<stop  offset="0" style="stop-color:#EDCF24"/>
		<stop  offset="0.3556" style="stop-color:#F3B41F"/>
		<stop  offset="0.9489" style="stop-color:#FF8015"/>
	</linearGradient>
	<path style="fill:url(#SVGID_8_);" d="M205.262,16.492c0.09,0.55,0.13,1.09,0.13,1.63c0,2.11-0.65,4.16-1.91,5.9
		c-1.57,2.2-3.91,3.64-6.58,4.08c-2.66,0.44-5.34-0.2-7.54-1.77c-2.19-1.58-3.64-3.92-4.07-6.59c-0.9-5.5,2.85-10.71,8.35-11.61
		c0.56-0.09,1.11-0.13,1.66-0.13c2.1,0,4.14,0.65,5.88,1.9C203.372,11.482,204.822,13.822,205.262,16.492z"/>
	<linearGradient id="SVGID_9_" gradientUnits="userSpaceOnUse" x1="164.6183" y1="85.3423" x2="184.8517" y2="85.3423">
		<stop  offset="0" style="stop-color:#EDCF24"/>
		<stop  offset="0.3556" style="stop-color:#F3B41F"/>
		<stop  offset="0.9489" style="stop-color:#FF8015"/>
	</linearGradient>
	<path style="fill:url(#SVGID_9_);" d="M184.712,83.712c0.09,0.56,0.14,1.11,0.14,1.66c0,2.1-0.66,4.15-1.91,5.88
		c-1.58,2.19-3.92,3.64-6.58,4.08c-5.52,0.89-10.72-2.85-11.61-8.36c-0.9-5.5,2.85-10.71,8.35-11.61c0.55-0.09,1.1-0.14,1.65-0.14
		c2.1,0,4.15,0.66,5.89,1.91C182.832,78.712,184.282,81.052,184.712,83.712z"/>
	<linearGradient id="SVGID_10_" gradientUnits="userSpaceOnUse" x1="311.8965" y1="89.2372" x2="246.2265" y2="167.4996">
		<stop  offset="0" style="stop-color:#F58085"/>
		<stop  offset="0.3334" style="stop-color:#ED1C24"/>
		<stop  offset="0.5528" style="stop-color:#EB1C24"/>
		<stop  offset="0.6383" style="stop-color:#E41B23"/>
		<stop  offset="0.7005" style="stop-color:#D81921"/>
		<stop  offset="0.7513" style="stop-color:#C7171E"/>
		<stop  offset="0.7953" style="stop-color:#B0151B"/>
		<stop  offset="0.8344" style="stop-color:#951117"/>
		<stop  offset="0.8692" style="stop-color:#740E12"/>
		<stop  offset="0.8742" style="stop-color:#6F0D11"/>
	</linearGradient>
	<path style="fill:url(#SVGID_10_);" d="M357.842,136.592c0.9,8.29-2.48,16.25-9.05,21.28c-17.66,13.53-44.31,23.88-71.18,32.97
		c-0.01-2.36-0.19-4.74-0.59-7.12c-1.16-7.06-3.97-13.58-8.14-19.15l21.12-14.69c1.81-1.26,2.26-3.75,1-5.56
		c-1.26-1.82-3.76-2.26-5.57-1l-21.97,15.28c-1.31-1.2-2.68-2.34-4.15-3.39c-1.46-1.04-2.97-1.98-4.52-2.83l13.87-40
		c0.73-2.08-0.38-4.36-2.47-5.09c-2.08-0.72-4.36,0.39-5.09,2.47l-13.67,39.41c-6.62-2.18-13.72-2.75-20.8-1.59
		c-1.12,0.19-2.22,0.42-3.32,0.69c0.11-25.78,1.42-53.98,8.48-74.6c2.68-7.8,9.11-13.53,17.22-15.31
		c8.23-1.81,16.61,0.73,22.44,6.82c0.2,0.21,0.41,0.42,0.67,0.7c20.5,21.38,44.49,38.58,71.36,51.17l0.25,0.11
		c0.15,0.07,0.29,0.14,0.36,0.17C351.782,120.932,356.922,128.122,357.842,136.592z"/>
	<linearGradient id="SVGID_11_" gradientUnits="userSpaceOnUse" x1="106.9094" y1="175.1363" x2="206.0818" y2="187.3131">
		<stop  offset="0" style="stop-color:#F58085"/>
		<stop  offset="0.3334" style="stop-color:#ED1C24"/>
		<stop  offset="0.5528" style="stop-color:#EB1C24"/>
		<stop  offset="0.6383" style="stop-color:#E41B23"/>
		<stop  offset="0.7005" style="stop-color:#D81921"/>
		<stop  offset="0.7513" style="stop-color:#C7171E"/>
		<stop  offset="0.7953" style="stop-color:#B0151B"/>
		<stop  offset="0.8344" style="stop-color:#951117"/>
		<stop  offset="0.8692" style="stop-color:#740E12"/>
		<stop  offset="0.8742" style="stop-color:#6F0D11"/>
	</linearGradient>
	<path style="fill:url(#SVGID_11_);" d="M209.352,154.412c-4.31,2.88-8.11,6.54-11.22,10.88c-0.29,0.41-0.57,0.83-0.85,1.24
		l-29.71-12.96c-2.02-0.88-4.38,0.04-5.26,2.07c-0.88,2.02,0.04,4.38,2.07,5.27l29.07,12.67c-2.64,6.14-3.84,12.78-3.48,19.52
		l-31.71,6.96c-2.16,0.47-3.52,2.6-3.05,4.76c0.41,1.87,2.07,3.14,3.91,3.14c0.28,0,0.57-0.03,0.86-0.09l31.14-6.84
		c1.8,7.58,5.52,14.43,10.82,20c-25.49,13.48-51.76,25.94-73.97,29.41c-8.14,1.27-16.21-1.75-21.56-8.08
		c-5.44-6.43-7.1-15.03-4.45-22.98c0.12-0.35,0.23-0.68,0.33-1.03c9.35-28.08,13.37-57.32,11.97-86.9l-0.01-0.2
		c-0.01-0.19-0.02-0.38-0.03-0.56c-0.39-8.46,3.58-16.35,10.63-21.1c6.91-4.66,15.52-5.38,23.04-1.92
		C168.062,116.972,190.022,136.112,209.352,154.412z"/>
	<path d="M446.052,252.262c0.63,1.98-0.35,4.12-2.26,4.92c-26.86,11.27-53.94,16.95-80.78,16.95c-5.23,0-10.46-0.23-15.67-0.66
		c-0.19,3.11-0.82,6.23-1.96,9.26c-3.92,10.54-12.85,18.09-23.86,20.2c-0.13,0.03-0.33,0.07-0.52,0.1l-0.4,0.08
		c-12.78,2.47-25.22,5.98-37.27,10.48c0.53,39.82-8.05,129.28-90.87,165.77c-0.53,0.23-1.07,0.34-1.61,0.34
		c-1.43,0-2.79-0.76-3.51-2.08c-15.57-28.46-24.69-57.97-27.2-87.86c-33.69,32.11-73.02,48.35-117.08,48.35
		c-1.74,0-3.5-0.02-5.26-0.07c-2.07-0.07-3.76-1.7-3.88-3.78c-3.7-65.41,15.54-113.24,32.33-141.85
		c13.94-23.75,28.28-38.35,34.65-44.22c-0.2-0.22-0.41-0.44-0.6-0.67c-7.26-8.58-9.47-20.05-5.92-30.7c0.1-0.29,0.19-0.55,0.27-0.82
		c0.01-0.04,0.02-0.08,0.03-0.12c9.05-27.16,12.95-55.44,11.59-84.04l-0.02-0.28c0-0.11,0-0.22-0.01-0.33
		c-0.01-0.03-0.01-0.07-0.01-0.11c-0.54-11.3,4.75-21.82,14.14-28.16c9.25-6.24,20.79-7.2,30.86-2.55
		c17.5,8.06,35.96,22.88,53.02,38.35l-23.35-36.39c-1.04,0.38-2.13,0.67-3.25,0.85c-0.99,0.16-1.97,0.24-2.93,0.24
		c-8.72,0-16.42-6.32-17.87-15.2c-1.61-9.86,5.1-19.19,14.96-20.8c4.78-0.78,9.57,0.35,13.5,3.18c3.93,2.82,6.52,7.01,7.3,11.79
		c0.78,4.77-0.35,9.57-3.18,13.49c-0.54,0.76-1.16,1.46-1.8,2.12l22.21,34.62l-14.92-96.44c-3.66-0.06-7.2-1.22-10.23-3.4
		c-3.93-2.83-6.52-7.01-7.3-11.79c-1.6-9.86,5.11-19.19,14.97-20.79c4.77-0.78,9.57,0.34,13.49,3.17c3.93,2.83,6.52,7.01,7.3,11.79
		c0.78,4.77-0.35,9.57-3.17,13.5c-1.88,2.61-4.37,4.61-7.22,5.9l13.3,85.98c1.01-17.8,3.28-35.24,8.16-49.51
		c3.59-10.46,12.21-18.14,23.07-20.52c10.98-2.42,22.16,0.97,29.92,9.08c0.23,0.24,0.48,0.5,0.73,0.77
		c19.77,20.61,42.96,37.24,68.89,49.38l0.58,0.27c10.32,4.82,17.16,14.41,18.39,25.67c1.15,10.58-2.94,20.75-10.95,27.53
		c5.26,1.86,10.38,3.9,15.27,6.13C408.392,186.832,433.942,214.722,446.052,252.262z M437.252,251.212
		c-11.82-33.54-35.51-58.62-70.46-74.55c-6.29-2.88-12.99-5.43-19.92-7.65c-16.75,10.97-38.73,19.75-61.19,27.53l29.34,6.5
		c0.47-1,1.03-1.98,1.7-2.91c5.86-8.09,17.21-9.9,25.3-4.04c8.09,5.85,9.91,17.2,4.05,25.29c-2.84,3.92-7.03,6.5-11.81,7.27
		c-0.97,0.15-1.94,0.23-2.9,0.23c-3.79,0-7.47-1.19-10.59-3.45c-4.85-3.51-7.43-9-7.46-14.58l-30.87-6.84
		c21.87,14.35,44.55,30.87,58.22,48.22c3.1,3.94,5.15,8.43,6.11,13.14C376.662,268.062,407.072,263.322,437.252,251.212z
		 M348.792,157.872c6.57-5.03,9.95-12.99,9.05-21.28c-0.92-8.47-6.06-15.66-13.75-19.26c-0.07-0.03-0.21-0.1-0.36-0.17l-0.25-0.11
		c-26.87-12.59-50.86-29.79-71.36-51.17c-0.26-0.28-0.47-0.49-0.67-0.7c-5.83-6.09-14.21-8.63-22.44-6.82
		c-8.11,1.78-14.54,7.51-17.22,15.31c-7.06,20.62-8.37,48.82-8.48,74.6c1.1-0.27,2.2-0.5,3.32-0.69c7.08-1.16,14.18-0.59,20.8,1.59
		l13.67-39.41c0.73-2.08,3.01-3.19,5.09-2.47c2.09,0.73,3.2,3.01,2.47,5.09l-13.87,40c1.55,0.85,3.06,1.79,4.52,2.83
		c1.47,1.05,2.84,2.19,4.15,3.39l21.97-15.28c1.81-1.26,4.31-0.82,5.57,1c1.26,1.81,0.81,4.3-1,5.56l-21.12,14.69
		c4.17,5.57,6.98,12.09,8.14,19.15c0.4,2.38,0.58,4.76,0.59,7.12C304.482,181.752,331.132,171.402,348.792,157.872z
		 M339.592,216.692c3.27-4.52,2.26-10.85-2.26-14.12c-1.79-1.3-3.86-1.92-5.92-1.92c-3.14,0-6.23,1.45-8.21,4.18
		c-1.3,1.79-1.92,3.86-1.92,5.92c0,3.13,1.45,6.23,4.18,8.2c2.19,1.59,4.87,2.23,7.53,1.8
		C335.662,220.322,338.002,218.882,339.592,216.692z M337.892,279.942c2.9-7.78,1.58-16.29-3.51-22.77
		c-13.8-17.51-37.8-34.49-60.31-49.06c-1.25,2.89-2.8,5.67-4.68,8.29c-2.23,3.11-4.82,5.87-7.7,8.26l15.25,21.67
		c1.28,1.81,0.84,4.31-0.97,5.58c-0.7,0.49-1.5,0.73-2.29,0.73c-1.26,0-2.5-0.6-3.28-1.7l-15.3-21.76
		c-4.36,2.42-9.15,4.1-14.21,4.93c-0.48,0.08-0.95,0.14-1.43,0.21l-3.62,28.97c-0.26,2.03-1.98,3.51-3.97,3.51
		c-0.16,0-0.33-0.01-0.5-0.03c-2.19-0.28-3.75-2.28-3.47-4.47l3.46-27.66c-6.83-0.36-13.47-2.33-19.46-5.79
		c-7.38,28.92-13.56,58.24-11.75,80.89c0.66,8.24,5.5,15.4,12.95,19.15c7.61,3.82,16.45,3.41,23.64-1.09l0.56-0.36
		c25.15-15.74,52.63-26.55,81.73-32.17c0.13-0.03,0.32-0.07,0.51-0.1l0.41-0.08C328.262,293.492,334.942,287.832,337.892,279.942z
		 M192.592,470.502c73.39-34.57,82.78-114.86,82.76-153.76c-11.67,4.86-22.94,10.68-33.75,17.45l-0.55,0.35
		c-5.26,3.29-11.16,4.96-17.08,4.96c-4.92,0-9.86-1.15-14.46-3.46c-1.91-0.96-3.69-2.1-5.33-3.37c-10.73,18.71-23,35.36-36.53,49.57
		C169.112,412.202,177.482,441.872,192.592,470.502z M262.892,211.742c5.58-7.78,7.8-17.27,6.24-26.72
		c-1.56-9.45-6.7-17.72-14.48-23.31c-6.16-4.41-13.38-6.72-20.81-6.72c-1.96,0-3.94,0.16-5.91,0.48c-9.45,1.56-17.72,6.7-23.3,14.48
		c-5.58,7.79-7.8,17.27-6.24,26.72c1.55,9.45,6.7,17.73,14.48,23.31s17.27,7.79,26.72,6.24c4.72-0.78,9.15-2.45,13.1-4.91
		C256.632,218.862,260.102,215.632,262.892,211.742z M205.392,18.122c0-0.54-0.04-1.08-0.13-1.63c-0.44-2.67-1.89-5.01-4.08-6.59
		c-1.74-1.25-3.78-1.9-5.88-1.9c-0.55,0-1.1,0.04-1.66,0.13c-5.5,0.9-9.25,6.11-8.35,11.61c0.43,2.67,1.88,5.01,4.07,6.59
		c2.2,1.57,4.88,2.21,7.54,1.77c2.67-0.44,5.01-1.88,6.58-4.08C204.742,22.282,205.392,20.232,205.392,18.122z M198.132,165.292
		c3.11-4.34,6.91-8,11.22-10.88c-19.33-18.3-41.29-37.44-61.46-46.74c-7.52-3.46-16.13-2.74-23.04,1.92
		c-7.05,4.75-11.02,12.64-10.63,21.1c0.01,0.18,0.02,0.37,0.03,0.56l0.01,0.2c1.4,29.58-2.62,58.82-11.97,86.9
		c-0.1,0.35-0.21,0.68-0.33,1.03c-2.65,7.95-0.99,16.55,4.45,22.98c5.35,6.33,13.42,9.35,21.56,8.08
		c22.21-3.47,48.48-15.93,73.97-29.41c-5.3-5.57-9.02-12.42-10.82-20l-31.14,6.84c-0.29,0.06-0.58,0.09-0.86,0.09
		c-1.84,0-3.5-1.27-3.91-3.14c-0.47-2.16,0.89-4.29,3.05-4.76l31.71-6.96c-0.36-6.74,0.84-13.38,3.48-19.52l-29.07-12.67
		c-2.03-0.89-2.95-3.25-2.07-5.27c0.88-2.03,3.24-2.95,5.26-2.07l29.71,12.96C197.562,166.122,197.842,165.702,198.132,165.292z
		 M198.352,326.742c-3.51-4.67-5.69-10.3-6.18-16.36c-1.85-23.17,4.11-52.36,11.39-81.16c-25.47,13.38-51.65,25.58-74.35,29.13
		c-1.65,0.25-3.3,0.38-4.93,0.38c-6.2,0-12.19-1.83-17.3-5.24c-5.52,5.03-20.12,19.51-34.02,43.29
		c-15.82,27.07-33.9,71.99-31.23,133.33c45.14,0.34,85.14-17.19,118.95-52.16C174.702,363.462,187.362,346.242,198.352,326.742z
		 M184.852,85.372c0-0.55-0.05-1.1-0.14-1.66c-0.43-2.66-1.88-5-4.07-6.58c-1.74-1.25-3.79-1.91-5.89-1.91
		c-0.55,0-1.1,0.05-1.65,0.14c-5.5,0.9-9.25,6.11-8.35,11.61c0.89,5.51,6.09,9.25,11.61,8.36c2.66-0.44,5-1.89,6.58-4.08
		C184.192,89.522,184.852,87.472,184.852,85.372z"/>
	<path d="M250.472,167.552c12.84,9.21,15.8,27.16,6.59,40c-5.6,7.8-14.41,11.95-23.34,11.95c-5.78,0-11.62-1.74-16.67-5.36
		c-6.22-4.46-10.33-11.08-11.58-18.63c-1.24-7.56,0.53-15.15,4.99-21.37C219.682,161.292,237.622,158.342,250.472,167.552z
		 M250.552,202.892c6.64-9.26,4.51-22.2-4.75-28.84c-3.63-2.61-7.84-3.86-12.01-3.86c-6.44,0-12.79,2.99-16.82,8.61
		c-3.22,4.49-4.5,9.96-3.6,15.4c0.89,5.45,3.86,10.22,8.34,13.44C230.972,214.282,243.912,212.152,250.552,202.892z"/>
</g>
<g>
</g>
<g>
</g>
<g>
</g>
<g>
</g>
<g>
</g>
<g>
</g>
<g>
</g>
<g>
</g>
<g>
</g>
<g>
</g>
<g>
</g>
<g>
</g>
<g>
</g>
<g>
</g>
<g>
</g>
</svg>
