<svg width="36" height="36" xmlns="http://www.w3.org/2000/svg" xmlns:svg="http://www.w3.org/2000/svg">
 <metadata>Svg Vector Icons : http://www.onlinewebfonts.com/icon</metadata>
 <g class="layer">
  <title>Layer 1</title>
  <g id="svg_1">
   <g id="svg_2" transform="translate(0,512) scale(0.10000000149011612,-0.10000000149011612) ">
    <path id="svg_3" d="m164.09084,5111.25c-53.2024,-5.45463 -100.54185,-33.96357 -130.55891,-78.76795c-11.04167,-16.56566 -21.39188,-41.20879 -25.32453,-60.60986c-2.96749,-14.63456 -3.5185,-20.36301 -3.5185,-36.5864c0,-16.2234 0.551,-21.81494 3.5185,-36.5864c3.86422,-19.12365 14.21444,-43.83883 25.32453,-60.61346c33.18983,-49.63574 88.53502,-79.52454 147.46354,-79.52454c66.65696,0 128.07399,38.17524 157.9542,98.09696c29.94864,60.12708 23.53107,130.81756 -16.8362,184.59651c-27.9463,37.27814 -69.2103,61.78437 -116.27244,69.03319c-8.62878,1.30782 -32.91973,1.9311 -41.75018,0.96195zm31.81052,-16.56566c32.36513,-3.10561 62.79634,-15.87753 87.91199,-36.79537c7.38272,-6.21122 19.45797,-18.98314 25.39296,-26.99216c16.07632,-21.60597 26.01599,-45.70148 30.29436,-72.899c1.65661,-10.97772 1.65661,-34.5184 -0.06843,-45.49252c-4.14153,-27.06061 -14.35129,-51.49838 -30.36279,-73.10796c-7.03699,-9.38889 -22.83962,-25.19796 -32.22467,-32.23783c-21.59716,-16.01443 -46.02496,-26.23197 -73.07813,-30.37518c-10.97324,-1.72574 -34.50431,-1.72574 -45.47396,-0.06845c-44.37195,6.90296 -82.11746,30.16622 -108.20187,66.61572c-21.52513,30.16982 -32.08422,69.72493 -28.42527,106.86617c2.89907,30.30673 13.59501,57.43579 32.63883,82.77066c5.31196,7.11192 21.94289,23.74604 29.0519,29.06376c21.18301,15.87753 42.16073,25.40332 66.58854,30.23467c15.80262,3.10561 30.91379,3.93425 45.95653,2.41748z"/>
    <path id="svg_4" d="m115.58097,5006.5275l-4.8978,-5.38618l1.65661,-6.55709c1.72504,-6.48864 1.72504,-6.48864 1.72504,-45.42407l0,-39.00388l-3.45007,-3.24612c-4.69253,-4.62599 -10.69594,-6.48864 -20.70043,-6.48864c-6.21229,0 -7.79687,0.27742 -10.90122,1.65729c-7.03699,3.17767 -11.17852,10.49495 -11.17852,19.60642c0,2.8318 0.75988,8.21438 1.72504,12.56295c0.96516,4.21167 1.93031,8.56025 2.13919,9.6663l0.34573,2.07161l-1.58819,-1.9347c-1.86189,-2.14006 -7.45115,-15.80907 -9.24821,-22.57513c-1.37931,-5.45463 -1.72504,-19.05519 -0.48258,-23.12635c2.41649,-7.7316 8.62518,-14.22024 16.0079,-16.70617c5.79454,-1.86265 16.90463,-1.72574 22.98007,0.34587c11.9384,4.14322 22.56591,14.77507 26.08441,26.23197c1.31088,4.14322 1.37931,6.48864 1.37931,38.93543l0,34.44634l2.07076,4.8998c1.17403,2.62284 2.07076,5.10877 2.07076,5.52309c0,0.34587 -0.89673,1.9347 -2.00234,3.51993c-2.41649,3.51993 -5.79814,10.28599 -6.90014,13.80592c-0.48258,1.37987 -1.10561,2.55438 -1.44773,2.55438c-0.2809,0.00721 -2.76582,-2.41027 -5.38759,-5.37898z"/>
    <path id="svg_5" d="m195.07306,4997.8988c-3.31322,-5.17722 -3.45007,-5.59154 -2.96749,-8.6287c1.03718,-6.62554 1.45133,-30.16622 0.69145,-38.17524c-1.37931,-14.70301 -5.31196,-26.30042 -12.00682,-35.27499c-1.58819,-2.14006 -2.96749,-3.79735 -3.10434,-3.66044c-0.13685,0.13691 0.13685,2.69129 0.61943,5.65999c0.48258,2.9687 0.89673,10.07702 0.82831,15.74062c0,12.08018 -1.24246,17.94914 -5.72611,26.99216c-7.24587,14.84352 -23.80837,32.23783 -28.08675,29.54654c-1.93031,-1.17451 -4.14153,-5.65999 -5.45241,-10.83721c-1.93031,-7.86851 -0.551,-12.70346 5.52083,-19.53797c2.89907,-3.31457 3.45007,-3.66044 7.79687,-4.41703c8.27945,-1.52038 9.66236,-2.48593 14.14601,-9.25198c4.82938,-7.45419 7.17744,-19.26055 6.28071,-31.75505c-0.48258,-7.03987 -0.41415,-6.97141 -9.03933,-12.63141c-7.10902,-4.69444 -15.17959,-8.42334 -25.18768,-11.73431c-4.20995,-1.37987 -8.00575,-2.69129 -8.27945,-2.9687c-1.10561,-0.96555 8.97091,-2.34902 17.11351,-2.27697c13.38613,0.06845 21.46031,2.41748 29.81178,8.76561c6.07184,4.62599 11.45582,11.39204 15.4569,19.39746c4.0731,8.28283 6.07184,15.53166 6.69487,24.85209l0.551,6.90296l0.89673,-5.17722c1.58819,-8.90611 4.82938,-19.39746 8.07418,-26.16351c2.55334,-5.17722 4.14153,-7.45419 8.4199,-11.73431c9.24821,-9.24838 18.07866,-13.80592 29.53448,-15.3263c6.62644,-0.82864 8.83406,-0.61968 25.80711,3.10561c11.04167,2.41748 21.66918,3.8658 27.80945,3.8658l5.17511,0l3.58692,9.11147c2.13919,5.52309 3.2448,9.24838 2.75862,9.38889c-3.03592,1.034 -11.11009,7.80006 -21.46031,17.88068c-17.39081,16.91513 -23.5995,20.64042 -34.09016,20.0892c-8.34788,-0.48277 -13.73186,-3.8658 -19.25269,-12.14863c-4.6205,-7.04347 -4.69253,-7.32088 -0.8247,-5.6636c12.00322,5.10877 20.0774,4.48909 29.53088,-2.27697c7.03699,-5.04031 18.01024,-17.12049 16.69935,-18.36346c-1.93391,-1.79419 -21.11458,-5.04031 -29.94864,-5.04031c-5.31196,-0.06845 -7.5916,0.27742 -12.07525,1.79419c-3.03592,1.034 -6.62284,2.55438 -7.93732,3.38303c-11.3874,6.83451 -20.56358,18.84623 -24.77353,32.44679c-3.03592,10.00857 -6.96857,32.10092 -9.24461,51.9127l-0.82831,7.5947l-3.5185,-5.38618z"/>
   </g>
  </g>
 </g>
</svg>