<svg width="32" height="32" xmlns="http://www.w3.org/2000/svg" xmlns:svg="http://www.w3.org/2000/svg">
 <g class="layer">
  <title>Layer 1</title>
  <g id="svg_17">
   <path id="svg_1" fill="#d9a559" d="m25.79324,1.77999c2.96396,2.96396 0,10.73158 -6.59226,17.37494s-14.41098,9.55622 -17.37494,6.59226c-4.39484,-4.39484 4.19043,-6.54116 10.78269,-13.18452c6.59226,-6.64336 8.78968,-15.22863 13.18452,-10.78269"/>
   <path id="svg_2" fill="#fbbf67" d="m13.59874,13.43142c6.33674,-6.38785 8.58527,-14.51319 12.62239,-11.29371c-0.10221,-0.15331 -0.20441,-0.25551 -0.30662,-0.40882c-4.39484,-4.39484 -6.54116,4.19043 -13.18452,10.78269c-6.64336,6.64336 -15.22863,8.78968 -10.78269,13.18452c0.10221,0.10221 0.25551,0.20441 0.40882,0.30662c-3.27058,-3.98602 4.85476,-6.23454 11.24261,-12.57128"/>
   <path id="svg_3" fill="#c94747" d="m27.6009,2.18881c2.96396,2.96396 -1.02206,10.37386 -8.07424,17.42605c-7.05218,7.05218 -14.51319,11.0893 -17.47715,8.12534c-3.42389,-3.42389 5.31469,-6.13233 12.36687,-13.18452c7.10329,-7.05218 9.76063,-15.79076 13.18452,-12.36687z"/>
   <path id="svg_4" fill="#fbbf67" d="m30.25824,6.12372c2.91286,2.91286 -0.0511,10.68048 -6.69446,17.32384s-14.35988,9.55622 -17.27274,6.64336c-2.91286,-2.91286 4.59925,-6.13233 11.24261,-12.72459c6.59226,-6.64336 9.76063,-14.20657 12.72459,-11.24261"/>
   <g id="svg_5" fill="#3e4347" opacity="0.5">
    <path id="svg_6" opacity="0.5" d="m27.42852,5.91931c0.35772,-0.20441 0.66434,-0.40882 1.02206,-0.45992c0.15331,-1.37977 -0.15331,-2.50404 -0.91985,-3.32168c-0.66434,-0.66434 -1.32867,-0.86875 -1.99301,-0.71544c1.7886,1.17536 2.24852,2.75955 1.8908,4.49704"/>
    <path id="svg_7" opacity="0.5" d="m6.32308,26.87145c-4.24153,1.48198 -4.95697,-1.58419 -4.95697,-1.58419c-0.35772,0.81764 -0.25551,1.63529 0.56213,2.45293c0.86875,0.86875 2.09521,1.12426 3.57719,0.91985c0,-0.56213 0.30662,-1.12426 0.81764,-1.7886"/>
   </g>
   <path id="svg_8" fill="#d9a559" d="m14.57131,14.73326c-5.18563,5.18563 -8.33012,4.41331 -8.60595,4.33056c0.02758,0.05517 0.08275,0.08275 0.11033,0.13792c1.57224,1.57224 5.76488,-0.02758 9.35069,-3.61339c3.36515,-3.39273 4.99255,-7.30954 3.80648,-9.07486c0.38616,1.48949 -0.46891,3.99956 -4.66155,8.21978"/>
   <g id="svg_9" fill="#3e4347">
    <path id="svg_10" opacity="0.5" d="m6.93631,22.47661c1.12426,0.25551 1.99301,0.71544 1.8908,0.97095c-0.10221,0.30662 -1.07316,0.30662 -2.19742,0.0511c-1.12426,-0.25551 -1.99301,-0.71544 -1.8908,-0.97095c0.0511,-0.30662 1.02206,-0.30662 2.19742,-0.0511"/>
    <path id="svg_11" opacity="0.5" d="m9.90027,20.33029c1.12426,0.25551 1.99301,0.71544 1.8908,0.97095c-0.10221,0.25551 -1.07316,0.30662 -2.19742,0c-1.12426,-0.25551 -1.99301,-0.71544 -1.8908,-0.97095c0.10221,-0.25551 1.07316,-0.25551 2.19742,0"/>
    <path id="svg_12" opacity="0.5" d="m13.32416,17.77515c1.12426,0.25551 1.99301,0.71544 1.8908,0.97095c-0.10221,0.25551 -1.07316,0.30662 -2.19742,0.0511c-1.12426,-0.25551 -1.99301,-0.71544 -1.8908,-0.97095c0.10221,-0.30662 1.07316,-0.30662 2.19742,-0.0511"/>
    <path id="svg_13" opacity="0.5" d="m16.33922,14.76009c1.12426,0.25551 1.99301,0.71544 1.8908,0.97095c-0.10221,0.30662 -1.07316,0.30662 -2.19742,0.0511c-1.12426,-0.25551 -1.99301,-0.71544 -1.8908,-0.97095s1.07316,-0.30662 2.19742,-0.0511"/>
    <path id="svg_14" opacity="0.5" d="m19.76311,11.3362c1.12426,0.25551 1.99301,0.71544 1.8908,0.97095c-0.10221,0.25551 -1.07316,0.30662 -2.19742,0.0511c-1.12426,-0.25551 -1.99301,-0.71544 -1.8908,-0.97095c0.0511,-0.30662 1.07316,-0.30662 2.19742,-0.0511"/>
    <path id="svg_15" opacity="0.5" d="m22.77817,7.5035c1.12426,0.25551 1.99301,0.71544 1.8908,0.97095c-0.10221,0.25551 -1.07316,0.30662 -2.19742,0.0511c-1.12426,-0.25551 -1.99301,-0.71544 -1.8908,-0.97095c0.0511,-0.30662 1.02206,-0.30662 2.19742,-0.0511"/>
   </g>
   <path id="svg_16" fill="#ffce31" d="m4.9433,26.15601c0.40882,-2.24852 2.50404,-1.37977 3.47499,-2.91286c0.51103,-0.76654 0.76654,-1.63529 1.17536,-2.40183c0.35772,-0.71544 1.8397,-0.45992 2.60624,-0.71544c1.8908,-0.66434 1.07316,-4.24153 3.37278,-4.03712c1.07316,0.10221 2.45293,-0.40882 2.60624,-1.63529c0.10221,-0.66434 0.10221,-1.22647 0,-1.8397c-0.20441,-1.8397 2.19742,-1.53308 3.06617,-1.99301c1.22647,-0.66434 1.73749,-1.43088 1.32867,-2.81065c-0.40882,-1.43088 1.73749,0.10221 3.6283,-1.7886c0.91985,-0.91985 0.25551,-2.50404 -0.25551,-3.11727c-0.76654,-0.86875 -1.37977,0.10221 -1.27757,1.27757c0.0511,0.81764 -1.53308,0.45992 -2.19742,0.45992c-0.40882,0 -0.97095,0.10221 -1.27757,0.40882c-0.91985,0.97095 0.20441,2.04411 -0.40882,3.16837c-0.76654,1.37977 -2.65734,0.45992 -3.88381,2.24852c-1.22647,1.73749 -0.25551,3.93491 -1.94191,3.78161c-1.22647,-0.10221 -2.04411,1.12426 -2.60624,2.04411c-0.56213,0.97095 -0.81764,2.45293 -2.35073,2.29962c-0.51103,-0.0511 -0.86875,0.15331 -1.27757,0.40882c-1.63529,1.12426 -0.91985,2.96396 -3.16837,3.57719c-1.7886,0.45992 -2.14632,1.37977 -2.50404,3.16837c-0.0511,1.12426 1.68639,1.58419 1.8908,0.40882"/>
  </g>
 </g>
</svg>