<svg width="32" height="32" xmlns="http://www.w3.org/2000/svg" xmlns:svg="http://www.w3.org/2000/svg">
 <g class="layer">
  <title>Layer 1</title>
  <path id="svg_1" fill="#f6da77" d="m31.6877,23.91454c-0.05254,-12.62652 -10.92813,-23.28662 -23.74766,-23.33837l-7.77578,31.04883l31.52344,-7.71046"/>
  <path id="svg_2" fill="#860d16" d="m27.58965,24.89775l1.10332,-0.20699c-0.52539,-9.83213 -7.6707,-20.12999 -21.54102,-21.16495l-0.15762,1.03496c10.61289,1.34545 19.28184,9.83213 20.59531,20.33698"/>
  <path id="svg_3" fill="#c98e52" d="m28.64043,24.69076l2.99473,-0.72447c0.05254,-12.62652 -10.87559,-23.39012 -23.8002,-23.39012l-0.73555,2.94964c12.34668,1.13846 20.38516,9.10766 21.54102,21.16495z"/>
  <g id="svg_4" fill="#83bf4f">
   <path id="svg_5" d="m6.04863,21.12015c-0.89316,0 -1.68125,-0.31049 -2.31172,-0.93146c-0.2627,-0.25874 -0.2627,-0.67272 0,-0.87972c0.2627,-0.25874 0.68301,-0.25874 0.89316,0c0.73555,0.72447 2.04902,0.72447 2.78457,0c0.36777,-0.36224 0.57793,-0.82797 0.57793,-1.34545c0,-0.51748 -0.21016,-0.98321 -0.57793,-1.34545c-0.2627,-0.25874 -0.2627,-0.67272 0,-0.87972c0.2627,-0.25874 0.68301,-0.25874 0.89316,0c0.63047,0.62098 0.9457,1.3972 0.9457,2.27691c0,0.87972 -0.31523,1.65594 -0.9457,2.27691c-0.57793,0.46573 -1.41855,0.82797 -2.25918,0.82797"/>
   <path id="svg_6" d="m19.23594,10.87403c0,0.1035 0,0.15524 0,0.25874c-0.05254,0.15524 -0.10508,0.25874 -0.2627,0.36224c-0.15762,0.1035 -0.31523,0.1035 -0.42031,0.05175c-0.42031,-0.1035 -0.84062,0 -1.2084,0.20699c-0.36777,0.20699 -0.63047,0.56923 -0.73555,0.98321c-0.21016,0.82797 0.36777,1.70769 1.2084,1.91468c0.31523,0.05175 0.52539,0.41398 0.42031,0.67272c-0.05254,0.31049 -0.36777,0.51748 -0.68301,0.41398c-1.05078,-0.25874 -1.83887,-1.03496 -2.10156,-2.06992c-0.10508,-0.41398 -0.10508,-0.82797 0,-1.1902c0.15762,-0.72447 0.63047,-1.2937 1.26094,-1.70769c0.63047,-0.41398 1.36602,-0.51748 2.10156,-0.36224c0.15762,0.1035 0.36777,0.25874 0.42031,0.46573"/>
   <path id="svg_7" d="m22.02051,25.88097c-0.10508,0 -0.15762,0 -0.2627,0c-0.15762,-0.05175 -0.2627,-0.1035 -0.31523,-0.25874c-0.05254,-0.1035 -0.10508,-0.25874 -0.05254,-0.41398c0.10508,-0.36224 0.05254,-0.77622 -0.15762,-1.13846c-0.21016,-0.36224 -0.52539,-0.62098 -0.9457,-0.72447c-0.78809,-0.20699 -1.68125,0.31049 -1.89141,1.03496c-0.05254,0.25874 -0.42031,0.46573 -0.68301,0.36224c-0.31523,-0.1035 -0.47285,-0.36224 -0.36777,-0.67272c0.2627,-0.93146 1.05078,-1.70769 2.04902,-1.86293c0.36777,-0.05175 0.78809,-0.05175 1.15586,0.05175c0.68301,0.15524 1.26094,0.62098 1.57617,1.1902c0.36777,0.62098 0.42031,1.2937 0.2627,1.96643c0,0.25874 -0.15762,0.41398 -0.36777,0.46573"/>
  </g>
  <g id="svg_8" fill="#b21725">
   <path id="svg_9" d="m18.44785,18.274c0.73555,2.12167 -0.42031,4.39858 -2.62695,5.12306c-2.20664,0.72447 -4.5709,-0.41398 -5.25391,-2.53565c-0.73555,-2.12167 0.42031,-4.39858 2.62695,-5.12306c2.1541,-0.72447 4.51836,0.41398 5.25391,2.53565"/>
   <path id="svg_10" d="m25.01523,18.68799c0.42031,1.2937 -0.2627,2.63915 -1.57617,3.10488c-1.31348,0.41398 -2.73203,-0.25874 -3.15234,-1.55244c-0.42031,-1.2937 0.2627,-2.63915 1.57617,-3.10488c1.26094,-0.41398 2.67949,0.25874 3.15234,1.55244"/>
   <path id="svg_11" d="m14.19219,9.37334c0.57793,1.70769 -0.36777,3.62236 -2.1541,4.19159c-1.78633,0.56923 -3.73027,-0.36224 -4.3082,-2.06992c-0.57793,-1.70769 0.36777,-3.62236 2.1541,-4.19159c1.78633,-0.56923 3.73027,0.36224 4.3082,2.06992"/>
   <path id="svg_12" d="m17.0293,27.48516l-5.09629,1.24195c-0.47285,-1.34545 0.47285,-2.94964 1.83887,-3.31187c1.68125,-0.41398 2.78457,0.77622 3.25742,2.06992"/>
   <path id="svg_13" d="m9.25352,23.86279c0.63047,1.75943 -0.36777,3.72586 -2.20664,4.29509c-1.83887,0.62098 -3.83535,-0.36224 -4.46582,-2.17342c-0.63047,-1.75943 0.36777,-3.72586 2.20664,-4.29509c1.83887,-0.56923 3.83535,0.41398 4.46582,2.17342"/>
  </g>
  <path id="svg_14" fill="#e0a763" d="m7.09941,3.52581c2.78457,0.05175 5.56914,0.56923 8.19609,1.60419c2.62695,0.98321 5.09629,2.53565 7.09277,4.55383c1.99648,1.96643 3.57266,4.39858 4.62344,6.98599c1.05078,2.5874 1.57617,5.33005 1.62871,8.07269c-0.47285,-2.6909 -1.2084,-5.33005 -2.36426,-7.76221c-1.15586,-2.43216 -2.67949,-4.70907 -4.62344,-6.572c-1.89141,-1.91468 -4.20313,-3.41537 -6.67246,-4.50208c-2.46934,-1.1902 -5.14883,-1.91468 -7.88086,-2.38041"/>
 </g>
</svg>