<svg width="36" height="28.000000000000004" xmlns="http://www.w3.org/2000/svg" xmlns:svg="http://www.w3.org/2000/svg">
 <metadata id="metadata1923">image/svg+xml</metadata>
 <g class="layer">
  <title>Layer 1</title>
  <g id="svg_3">
   <path d="m1.12638,0.68168c-0.46826,0 -0.80901,0.30848 -0.98654,0.61161c-0.16736,0.28575 -0.23802,0.60939 -0.23802,0.93581l0,10.26715c0,0.74221 0.1673,1.4327 0.49483,1.99194c0.18727,0.31975 0.44766,0.58939 0.75791,0.77872l0,11.34668c0,0.44871 0.10164,0.87541 0.31319,1.2366c0.21824,0.37263 0.6209,0.73862 1.16192,0.73862c0.54104,0 0.94055,-0.36599 1.15879,-0.73862c0.21154,-0.3612 0.31633,-0.78789 0.31633,-1.2366l0,-11.35002c0.30856,-0.18931 0.56826,-0.45691 0.75478,-0.77539c0.32753,-0.55924 0.49797,-1.24973 0.49797,-1.99194l0,-10.26715c0,-0.32641 -0.0738,-0.65006 -0.24116,-0.93581c-0.17754,-0.30313 -0.51515,-0.61161 -0.98341,-0.61161c-0.3131,0 -0.56366,0.14178 -0.75164,0.3242c-0.18811,-0.18299 -0.43788,-0.3242 -0.75166,-0.3242c-0.3131,0 -0.56366,0.14178 -0.75164,0.3242c-0.18811,-0.18299 -0.43788,-0.3242 -0.75166,-0.3242l0.00001,0z" id="path52989" fill-rule="nonzero" fill-opacity="0.2" fill="#000000"/>
   <path d="m0.62231,0.87874c-0.17227,0 -0.31399,0.11108 -0.40324,0.26346c-0.09344,0.15955 -0.13168,0.35296 -0.13168,0.55326l0,10.26614c0,0.61828 0.1386,1.18335 0.38678,1.6071c0.21227,0.36245 0.52046,0.5834 0.86409,0.64987l0,11.86447c0,0.32144 0.07128,0.6135 0.20573,0.84308c0.13333,0.22766 0.3374,0.39519 0.58428,0.39519c0.24689,0 0.4451,-0.17158 0.57606,-0.39519c0.13212,-0.22558 0.21397,-0.51737 0.21397,-0.84308l0,-11.86447c0.34213,-0.06684 0.64458,-0.28911 0.85586,-0.64987c0.24702,-0.42177 0.39501,-0.98673 0.39501,-1.6071l0,-10.26614c0,-0.2075 -0.05038,-0.40041 -0.1399,-0.55326c-0.08512,-0.14533 -0.22274,-0.26346 -0.39501,-0.26346c-0.17227,0 -0.31399,0.11108 -0.40324,0.26346c-0.08952,0.15285 -0.1399,0.34577 -0.1399,0.55326l0,10.26614c0,0.1491 -0.03335,0.27649 -0.08229,0.36007c-0.04443,0.07587 -0.09767,0.10538 -0.13168,0.10538c-0.03401,0 -0.08724,-0.02952 -0.13168,-0.10538c-0.04895,-0.08357 -0.08229,-0.21097 -0.08229,-0.36007l0,-10.26614c0,-0.2003 -0.03822,-0.39372 -0.13168,-0.55326c-0.08924,-0.15238 -0.23097,-0.26346 -0.40324,-0.26346c-0.17227,0 -0.31399,0.11108 -0.40324,0.26346c-0.08952,0.15285 -0.1399,0.34577 -0.1399,0.55326l0,10.26614c0,0.1491 -0.03335,0.27649 -0.08229,0.36007c-0.04808,0.08209 -0.08944,0.10538 -0.12344,0.10538c-0.03401,0 -0.08724,-0.02952 -0.13168,-0.10538c-0.04895,-0.08357 -0.08229,-0.21097 -0.08229,-0.36007l0,-10.26614c0,-0.2075 -0.05038,-0.40041 -0.1399,-0.55326c-0.08924,-0.15238 -0.23097,-0.26346 -0.40324,-0.26346l-0.00002,0z" id="path26681" stroke-width="1.5" fill-rule="nonzero" fill="#002395"/>
   <path d="m35.44863,0.65961c-0.11335,-0.00436 -0.22656,0.00389 -0.33824,0.02674c-0.22729,0.0465 -0.43651,0.14639 -0.62637,0.28074c-0.37554,0.26573 -0.67322,0.65949 -0.93643,1.1731c-1.05354,2.05583 -1.73915,6.29866 -1.23396,15.14005l0,0.00334l0.00939,0.16042l0.04072,0.68849l0.6483,0l0.15032,0l0.90511,0l0,8.50583c0,0.44871 0.10164,0.87541 0.31319,1.2366c0.21824,0.37263 0.6209,0.73862 1.16192,0.73862c0.54104,0 0.94055,-0.36599 1.15879,-0.73862c0.21154,-0.3612 0.31633,-0.78789 0.31633,-1.2366l0,-23.95669c0,-0.8327 -0.39275,-1.71967 -1.23083,-1.96854c-0.10956,-0.03253 -0.2249,-0.04912 -0.33824,-0.05348l0,0l0,-0.00001z" id="path52987" fill-rule="nonzero" fill-opacity="0.2" fill="#000000"/>
   <path d="m34.92251,0.86117c-0.0603,-0.00231 -0.11881,-0.00396 -0.18105,0.00879c-0.12447,0.02546 -0.25496,0.08819 -0.37855,0.17563c-0.24718,0.17491 -0.48829,0.46909 -0.71596,0.91333c-0.91065,1.77699 -1.64576,5.9616 -1.14389,14.74497l0.00822,0.15807l1.74464,0l0,9.23866c0,0.32389 0.07319,0.62553 0.20573,0.85185c0.13256,0.22632 0.33459,0.39519 0.57606,0.39519c0.24148,0 0.44351,-0.16886 0.57606,-0.39519c0.13256,-0.22632 0.21397,-0.52796 0.21397,-0.85185l0,-23.95727c0,-0.59111 -0.2706,-1.12114 -0.72419,-1.25582c-0.0567,-0.01683 -0.12074,-0.02403 -0.18105,-0.02635l0.00001,0l-0.00001,-0.00001z" id="path1918" fill="#ce2b37"/>
   <path d="m18.60679,1.29434c-6.89725,0 -12.5018,5.98087 -12.5018,13.34125c0,7.36037 5.60455,13.34125 12.5018,13.34125c6.89725,0 12.5018,-5.98087 12.5018,-13.34125c0,-7.36037 -5.60455,-13.34125 -12.5018,-13.34125z" id="circle52991" fill-rule="nonzero" fill-opacity="0.2" fill="#000000"/>
   <path d="m18.10158,1.15975c-2.18371,0 -4.2294,0.61693 -5.99924,1.69492l0,22.49068c1.76984,1.07799 3.81553,1.69492 5.99924,1.69492c2.39485,0 4.62916,-0.74123 6.50947,-2.01986l0,-21.84081c-1.87996,-1.27792 -4.11532,-2.01986 -6.50947,-2.01986z" id="rect6" fill="#ffffff"/>
   <path d="m12.10234,2.85468c-3.65819,2.22816 -6.12269,6.43302 -6.12269,11.24973c0,4.81672 2.4645,9.0128 6.12269,11.24095l0,-22.49068z" id="rect4" fill="#002395"/>
   <path d="m18.10158,1.15975c-2.18371,0 -4.2294,0.61693 -5.99924,1.69492l0,22.49068c1.76984,1.07799 3.81553,1.69492 5.99924,1.69492c2.1853,0 4.23651,-0.61542 6.00748,-1.69492l0,-22.49068c-1.77085,-1.07908 -3.82282,-1.69492 -6.00748,-1.69492z" id="rect6-4" fill="#ffffff"/>
   <path d="m24.10906,2.85468c3.65819,2.22816 6.12269,6.43302 6.12269,11.24973c0,4.81672 -2.4645,9.0128 -6.12269,11.24095l0,-22.49068z" id="rect4-8" fill="#ce2b37"/>
   <circle stroke="#333333" r="100" transform="matrix(0.12126628521089503,0,0,0.12940887458911873,-237.32336639124105,60.65293479600069) " id="circle1912" stroke-miterlimit="4" stroke-width="6.19835" fill="none" cy="-359.72871" cx="2106.34849"/>
   <circle stroke="#333333" cx="2941.07709" cy="-502.28624" r="100" transform="matrix(0.08684881350406357,0,0,0.09268039501181458,-237.3233662815782,60.65293490238827) " id="circle3015" stroke-miterlimit="4" stroke-width="6.19835" fill="none"/>
  </g>
 </g>
</svg>