<svg width="32" height="32" xmlns="http://www.w3.org/2000/svg" xmlns:svg="http://www.w3.org/2000/svg">
 <g class="layer">
  <title>Layer 1</title>
  <g id="svg_1">
   <g id="svg_2">
    <path id="svg_3" fill="#F79329" d="m4.08972,28.08914c-0.37074,-0.30419 -0.72281,-0.66391 -1.06955,-1.11778c-1.14156,-1.48232 -2.04041,-4.69322 -0.87218,-6.3204c0.98153,-1.37127 2.90992,-2.10278 4.6276,-2.59527c3.61406,-1.0357 7.39882,-1.13226 11.17292,-0.90774c3.9688,0.23659 9.30587,0.74358 11.24493,4.23211c0.58412,1.04294 0.38141,2.39731 0.10936,3.48612c-0.77082,3.09501 -4.03815,5.09398 -7.55619,5.61786c-3.75809,0.56251 -8.08963,0.81842 -11.82371,0.06277c-1.97106,-0.39593 -4.34754,-1.2409 -5.83317,-2.45766z"/>
    <g id="svg_4">
     <path id="svg_5" fill="#BDCF46" d="m3.42559,18.18847c-0.73615,0.33557 -1.86704,0.94396 -2.3018,1.61269c-0.28806,0.44663 -0.3174,0.70012 -0.3174,1.23607c0,0.96085 0.39475,1.4775 1.36294,1.83721c1.72835,0.64459 2.49384,-0.11105 2.8139,1.8686c0.22938,1.4099 1.98973,1.91688 3.33667,1.50647c0.72281,-0.21728 1.21891,-0.72668 2.02174,-0.68564c1.05088,0.05311 1.64566,0.72668 2.4805,1.19503c0.63479,0.35489 1.33627,0.4587 2.07508,0.40559c0.6428,-0.04828 1.20024,-0.40076 1.71501,-0.73392c1.3416,-0.87636 2.55785,-0.09657 3.93679,0.19555c1.87504,0.39352 2.94993,-0.65908 4.07549,-1.90481c0.66147,-0.73151 1.30693,-0.74599 2.33647,-0.71461c0.83483,0.02414 1.29359,-0.15934 1.71234,-0.84014c0.40275,-0.64942 0.18404,-1.72616 0.94419,-2.17279c0.61346,-0.36213 1.17624,-0.38144 1.64566,-1.00914c1.13623,-1.51612 -0.26139,-2.88981 -1.57898,-3.70822c-0.98687,-0.60838 -2.18711,-1.19986 -3.41135,-1.2409c-2.41382,-0.08208 -4.73695,0.61804 -7.08409,1.02362c-2.67787,0.45629 -5.35308,0.96327 -8.06829,1.19262c-2.56852,0.21969 -5.30774,-0.14727 -7.69488,0.93671z"/>
     <path id="svg_6" fill="#855C52" d="m14.53982,27.96843c-0.80816,0 -1.54164,-0.18348 -2.17644,-0.53837c-0.26405,-0.14727 -0.50143,-0.31143 -0.73882,-0.47318c-0.53878,-0.36937 -0.86951,-0.58182 -1.33093,-0.60597c-0.28806,-0.02656 -0.47476,0.09898 -0.81883,0.27281c-0.25072,0.12795 -0.53611,0.27039 -0.87484,0.3742c-0.38941,0.1183 -0.80016,0.17865 -1.22158,0.17865l0,0c-1.69634,0 -3.03528,-0.95361 -3.25399,-2.32005c-0.12803,-0.79427 -0.12803,-0.79427 -0.74682,-0.88601c-0.38408,-0.05794 -0.90952,-0.13278 -1.53631,-0.36696c-1.29893,-0.48284 -1.90438,-1.29884 -1.90438,-2.5663c0,-0.57941 0.02934,-1.00672 0.44009,-1.63442c0.53611,-0.82807 1.74168,-1.49922 2.6592,-1.9193c1.87771,-0.85222 3.88345,-0.89084 5.82517,-0.92706c0.75749,-0.01449 1.4723,-0.02897 2.17911,-0.08933c2.26712,-0.19314 4.56625,-0.59148 6.78537,-0.97775l1.20024,-0.21004c0.62946,-0.10864 1.25892,-0.23901 1.88838,-0.36696c1.73102,-0.35972 3.52604,-0.73633 5.39042,-0.66874c1.1709,0.03863 2.43782,0.49008 3.87278,1.37851c2.3098,1.43404 2.9846,3.2278 1.8057,4.80427c-0.45076,0.59872 -0.9842,0.82083 -1.41095,0.99948c-0.16803,0.07243 -0.33073,0.13761 -0.48276,0.22694c-0.1467,0.08691 -0.21338,0.42973 -0.28006,0.76048c-0.06935,0.35972 -0.14936,0.77013 -0.37608,1.13709c-0.53878,0.87394 -1.23758,1.24815 -2.33647,1.24815l-0.16537,-0.00241c-0.1547,-0.00483 -0.30139,-0.00724 -0.44009,-0.00724c-0.65346,0 -0.87484,0.08208 -1.19224,0.43456c-0.86951,0.95844 -2.05908,2.2766 -3.97947,2.2766c-0.31206,0 -0.63746,-0.0338 -0.96819,-0.10381c-0.37074,-0.07967 -0.72014,-0.18589 -1.05355,-0.28488c-0.85884,-0.26315 -1.54698,-0.44904 -2.17644,-0.03621c-0.52544,0.34523 -1.24825,0.816 -2.1551,0.88119c-0.14136,0.00724 -0.28539,0.01207 -0.42675,0.01207zm-4.2862,-3.19641c0.04534,0 0.09335,0 0.13869,0.00241c1.01887,0.05311 1.69367,0.51664 2.28846,0.92706c0.19471,0.13037 0.38941,0.26556 0.60279,0.38627c0.42942,0.24142 0.95486,0.33075 1.54431,0.2897c0.38941,-0.02656 0.78949,-0.27039 1.27492,-0.58665c0.57078,-0.37179 1.1709,-0.55285 1.84304,-0.55285c0.6828,0 1.30693,0.19072 1.90972,0.37179c0.3094,0.09415 0.60279,0.18348 0.89351,0.24384c1.33627,0.28729 2.14443,-0.46353 3.20331,-1.63442c0.76015,-0.83773 1.56832,-1.01155 2.54451,-1.01155c0.1547,0 0.32006,0.00241 0.4961,0.00966l0.10936,0c0.43475,0 0.57612,-0.0507 0.8135,-0.43939c0.08535,-0.1352 0.13603,-0.39352 0.18404,-0.64459c0.11202,-0.56734 0.26672,-1.34713 1.04554,-1.80824c0.25872,-0.14968 0.49877,-0.24866 0.70681,-0.33799c0.36007,-0.14727 0.52544,-0.22452 0.69347,-0.44904c0.75215,-1.00431 -0.31473,-1.97724 -1.34694,-2.617c-1.15223,-0.71219 -2.11776,-1.07432 -2.94993,-1.10329c-1.643,-0.05311 -3.24065,0.27522 -4.93699,0.62528c-0.6508,0.1352 -1.3016,0.27039 -1.95239,0.38144l-1.19757,0.20762c-2.26179,0.3911 -4.59826,0.7991 -6.95073,0.99948c-0.76815,0.06518 -1.54965,0.08208 -2.30713,0.09657c-1.82703,0.0338 -3.55272,0.0676 -5.07836,0.75806c-0.95753,0.43697 -1.70168,0.93671 -1.93906,1.30609c-0.17604,0.27281 -0.20004,0.36696 -0.20004,0.83532c0,0.63735 0.16803,0.86187 0.82417,1.10812c0.44009,0.16417 0.80283,0.21969 1.15223,0.26798c1.09889,0.16175 1.90172,0.41766 2.19244,2.21624c0.11469,0.71461 0.89618,0.9681 1.53097,0.9681l0,0c0.22938,0 0.45876,-0.0338 0.6668,-0.09657c0.1867,-0.05794 0.37608,-0.1521 0.57878,-0.25349c0.40808,-0.20279 0.92819,-0.46594 1.62166,-0.46594z"/>
    </g>
    <g id="svg_7">
     <path id="svg_8" fill="#ED6C30" d="m1.23048,16.32229c0.03467,0.73633 0.20537,1.48957 0.47476,2.21866c1.25359,3.39196 5.18238,4.89119 8.90313,5.20503c6.1479,0.51905 17.41417,0.86187 19.36123,-6.28418c0.88018,-3.22538 -2.24579,-6.78875 -5.59313,-7.79548c-6.22525,-1.87101 -14.89366,-2.54699 -20.28675,1.61028c-1.34427,1.03811 -2.93659,3.37265 -2.85924,5.0457z"/>
     <path id="svg_9" fill="#855C52" d="m14.77987,9.77495c2.85124,0 6.06522,0.49491 9.04449,1.39058c2.53918,0.7653 5.08902,3.57544 4.45156,5.91964c-0.96286,3.5344 -5.16371,5.32574 -12.47985,5.32574c-1.50964,0 -3.14997,-0.07967 -5.02768,-0.23659c-1.82437,-0.1521 -6.20125,-0.8667 -7.40949,-4.13554c-0.22938,-0.61804 -0.36007,-1.21918 -0.38408,-1.7841c-0.04801,-1.06225 1.19224,-2.96706 2.24579,-3.77824c2.32313,-1.79134 5.54245,-2.7015 9.55926,-2.7015m0,-1.57889c-3.92079,0 -7.78023,0.83532 -10.69015,3.08053c-1.34427,1.03811 -2.93659,3.37265 -2.85924,5.0457c0.03467,0.73633 0.20537,1.48957 0.47476,2.21866c1.25359,3.39196 5.18238,4.89119 8.90313,5.20503c1.4963,0.12795 3.29666,0.24384 5.18771,0.24384c5.89185,0 12.69856,-1.12019 14.17352,-6.52802c0.88018,-3.22538 -2.24579,-6.78875 -5.59313,-7.79548c-2.86724,-0.86187 -6.25459,-1.47025 -9.5966,-1.47025l0,0z"/>
    </g>
    <path id="svg_10" fill="#855C52" d="m1.62522,12.58509c0.03201,0.73633 0.19737,1.48957 0.46143,2.21866c1.22158,3.39196 5.03835,4.89119 8.66041,5.20503c5.9772,0.52147 16.93941,0.85946 18.83312,-6.28418c0.85617,-3.22538 -2.18444,-6.78875 -5.4411,-7.79548c-6.05722,-1.87101 -14.48825,-2.54699 -19.73464,1.61028c-1.30693,1.03811 -2.85391,3.37506 -2.77923,5.0457z"/>
    <g id="svg_11">
     <path id="svg_12" fill="#BDCF46" d="m3.65763,12.14329c-0.94152,0.11588 -1.81103,0.43456 -2.46183,1.07432c-1.24025,1.224 -0.8055,3.41128 1.05888,3.8917c0.57078,0.14485 1.1629,0.02173 1.73635,0.14002c0.55478,0.11347 1.01887,0.42731 1.42429,0.77255c0.74948,0.63977 1.88038,1.20228 2.96593,1.09605c1.05088,-0.1014 1.93372,-0.73633 2.98193,-0.83773c0.49343,-0.0507 0.77616,0.03138 1.14956,0.28729c2.21111,1.51612 4.46757,0.15451 6.10523,-1.2916c0.58678,-0.51664 1.21358,-0.96085 1.70434,-1.57165c0.32006,-0.39593 1.1549,-1.22883 0.99753,-1.74789c-1.29893,-0.23418 -2.44583,0.25832 -3.72875,0.24625c-3.29666,-0.0338 -6.42529,-0.99465 -9.60193,-1.68512c-1.25625,-0.27281 -2.87791,-0.55768 -4.33154,-0.3742z"/>
     <path id="svg_13" fill="#855C52" d="m4.1804,13.85979c1.08022,0 2.23512,0.22211 3.11796,0.41524c0.73882,0.15934 1.49363,0.3404 2.22445,0.51664c2.6432,0.63011 5.37708,1.28194 8.28967,1.31333l0.07468,0c0.16003,0 0.32006,-0.00483 0.4721,-0.01449c-0.03201,0.02656 -0.06668,0.05311 -0.09869,0.08208c-0.19204,0.15934 -0.38141,0.32109 -0.56811,0.48767c-1.50697,1.33989 -2.49117,1.61993 -3.04861,1.61993c-0.37608,0 -0.72815,-0.12071 -1.10422,-0.38144c-0.43209,-0.29936 -1.05355,-0.64218 -2.00574,-0.64218c-0.14403,0 -0.29339,0.00724 -0.45342,0.02173c-0.8055,0.08208 -1.46963,0.33557 -2.05908,0.5601c-0.41875,0.15934 -0.78416,0.30178 -1.08022,0.33075c-0.02934,0.00241 -0.06401,0.00483 -0.09602,0.00483c-0.46676,0 -1.12556,-0.29936 -1.643,-0.74358c-0.48543,-0.41524 -1.25359,-0.99224 -2.31247,-1.21193c-0.46943,-0.09657 -0.89618,-0.09898 -1.24025,-0.1014c-0.19204,-0.00241 -0.40808,-0.00241 -0.4961,-0.02414c-0.27472,-0.07243 -0.45876,-0.24866 -0.54411,-0.52871c-0.11469,-0.35972 -0.01867,-0.75806 0.23738,-1.01397c0.34674,-0.34523 0.85351,-0.55527 1.54698,-0.64218c0.23738,-0.0338 0.50677,-0.04828 0.78683,-0.04828m0,-1.57648c-0.3494,0 -0.69347,0.0169 -1.03221,0.06277c-0.98953,0.12554 -1.90705,0.4587 -2.59252,1.14192c-1.30426,1.29643 -0.85084,3.61166 1.11222,4.12347c0.60279,0.15451 1.22691,0.02414 1.83237,0.14727c0.58412,0.12071 1.07222,0.45387 1.50164,0.81842c0.72548,0.62287 1.78703,1.17572 2.84057,1.17572c0.09335,0 0.1867,-0.00483 0.28272,-0.01449c1.10689,-0.10864 2.03774,-0.77979 3.14197,-0.89084c0.09335,-0.00724 0.18137,-0.01207 0.26139,-0.01207c0.36807,0 0.62679,0.09657 0.94686,0.32109c0.72281,0.49733 1.44829,0.70253 2.16043,0.70253c1.57898,0 3.07795,-1.01397 4.26753,-2.07139c0.61879,-0.55285 1.28026,-1.02121 1.7977,-1.66822c0.3334,-0.42007 1.21624,-1.30126 1.05088,-1.8517c-0.26405,-0.04828 -0.52544,-0.07001 -0.77616,-0.07001c-1.04554,0 -2.02707,0.32833 -3.09662,0.32833c-0.01867,0 -0.03467,0 -0.05601,0c-3.4807,-0.03621 -6.77203,-1.05259 -10.11937,-1.7841c-1.02421,-0.22452 -2.28846,-0.4587 -3.52338,-0.4587l0,0z"/>
    </g>
   </g>
   <g id="svg_14">
    <path id="svg_15" fill="#F79329" d="m2.98283,4.2102c-0.40541,0.34765 -0.79483,0.7653 -1.17357,1.28194c-1.25359,1.70443 -2.23512,5.39576 -0.96019,7.26918c1.07755,1.57406 3.18998,2.41421 5.07035,2.97913c3.96346,1.1902 8.1083,1.30126 12.24513,1.04294c4.34754,-0.27039 10.19939,-0.85222 12.32248,-4.86222c0.86951,-1.63925 0.12269,-4.95878 -0.8455,-6.45318c-1.20824,-1.8686 -3.41935,-3.00328 -5.60913,-3.75651c-4.41956,-1.52095 -9.71662,-2.00138 -14.30688,-0.84014c-2.38715,0.60114 -4.93966,1.78651 -6.74269,3.33885z"/>
    <g id="svg_16">
     <path id="svg_17" fill="#855C52" d="m13.57163,3.53422c0,-0.00966 0,-0.02173 0,-0.0338c0,-0.58665 0.77349,-0.7991 1.30693,-0.77738c0.76549,0.0338 1.38695,0.80876 0.46676,1.24815c-0.46143,0.21486 -1.77369,0.28246 -1.77369,-0.43697z"/>
     <path id="svg_18" fill="#855C52" d="m15.20662,6.30574c0,-0.01207 0,-0.02414 0.00267,-0.0338c0.05868,-0.58424 0.85351,-0.73392 1.38161,-0.66632c0.76015,0.09898 1.29893,0.91981 0.33873,1.27953c-0.4801,0.17865 -1.79236,0.1352 -1.72301,-0.57941z"/>
     <path id="svg_19" fill="#855C52" d="m17.79114,3.98085c0.00267,-0.01207 0.00267,-0.02173 0.00267,-0.0338c0.08802,-0.58182 0.88551,-0.70012 1.40828,-0.61321c0.75749,0.12554 1.25892,0.9681 0.28006,1.2916c-0.48543,0.16175 -1.79503,0.0676 -1.69101,-0.64459z"/>
     <path id="svg_20" fill="#855C52" d="m11.30717,6.14157c-0.01867,-0.06036 -0.02934,-0.12071 -0.02667,-0.19072c0.016,-0.44663 0.4721,-0.68322 1.0162,-0.73875c0.70948,-0.07243 1.53364,0.39834 1.05088,0.9681c-0.45076,0.53354 -1.8297,0.57217 -2.04041,-0.03863z"/>
     <path id="svg_21" fill="#855C52" d="m19.50082,6.48439c-0.17337,-0.39593 0.05868,-0.84497 1.09089,-0.84497c0.6668,0.00241 1.21091,0.64701 0.67747,1.13226c-0.70681,0.63494 -1.55231,0.21486 -1.76836,-0.28729z"/>
     <path id="svg_22" fill="#855C52" d="m22.69346,4.88618c-0.01334,-0.61321 0.93886,-0.56251 1.35227,-0.40559c0.28006,0.10623 0.5201,0.31143 0.52277,0.60114c0.00267,0.21728 -0.1867,0.577 -0.44009,0.63252c-0.4721,0.10623 -1.38428,-0.31868 -1.43229,-0.77979c0,-0.01449 0,-0.03138 -0.00267,-0.04828z"/>
     <path id="svg_23" fill="#855C52" d="m18.87936,8.60889c-0.016,-0.61321 0.93886,-0.56251 1.3496,-0.408c0.28006,0.10623 0.5201,0.31143 0.52544,0.60114c0.00267,0.21728 -0.18937,0.577 -0.44276,0.63252c-0.46943,0.10623 -1.38161,-0.31868 -1.42962,-0.77979c-0.00267,-0.01449 -0.00267,-0.03138 -0.00267,-0.04587z"/>
     <path id="svg_24" fill="#855C52" d="m13.15821,9.33798c-0.04001,-0.14244 -0.00267,-0.32109 0.1547,-0.53837c0.1787,-0.25349 0.58945,-0.35247 0.90151,-0.38869c0.30139,-0.03621 0.62413,0.03138 0.78683,0.28005c0.73348,1.11295 -1.635,1.38576 -1.84304,0.64701z"/>
     <path id="svg_25" fill="#855C52" d="m7.40239,7.30039c-0.04001,-0.14002 0,-0.32109 0.1547,-0.53837c0.18137,-0.25108 0.58945,-0.35247 0.90151,-0.38869c0.30406,-0.03621 0.62413,0.03138 0.78949,0.28246c0.73081,1.11054 -1.63766,1.38334 -1.8457,0.64459z"/>
     <path id="svg_26" fill="#855C52" d="m9.40012,4.22227c-0.04268,-0.14244 0,-0.32109 0.1547,-0.53837c0.1787,-0.25349 0.58945,-0.35247 0.90151,-0.38869c0.30406,-0.03621 0.62413,0.03138 0.78949,0.28246c0.73081,1.11054 -1.635,1.38093 -1.8457,0.64459z"/>
    </g>
   </g>
  </g>
 </g>
</svg>