<svg width="32" height="32" xmlns="http://www.w3.org/2000/svg" xmlns:svg="http://www.w3.org/2000/svg">
 <g class="layer">
  <title>Layer 1</title>
  <g id="svg_41">
   <g id="svg_42">
    <g id="svg_43">
     <path id="svg_44" fill="#E4E3DE" d="m24.91702,6.61969c-0.31439,-0.87608 -1.28001,-1.91354 -2.35792,-2.12794c-0.43915,-0.08761 -1.10286,-0.07608 -1.67924,-0.0415l-0.26698,0.01383c-1.24258,0.05764 -2.4677,0.27896 -3.50069,0.48876c-2.59495,0.52795 -5.53424,1.12507 -8.30386,1.98962c-0.21957,0.06916 -0.44663,0.13833 -0.67868,0.20749c-1.50707,0.45418 -3.21625,0.9683 -4.44137,1.97578c-0.71361,0.58789 -1.28001,1.41094 -1.63682,2.37463c-0.48905,1.32795 -0.56141,2.80114 -0.20211,4.14523c0.66371,2.49682 2.40532,2.85417 4.24425,3.23226c0.19712,0.03919 0.40421,0.08069 0.61381,0.1268c0.98059,0.21441 1.97865,0.32277 2.96174,0.32277c4.28916,0 7.95952,-1.99884 11.35542,-4.04609c1.36485,-0.82536 2.36041,-1.59999 3.12143,-2.43457c1.4921,-1.62766 1.46216,-4.29969 0.771,-6.22706z"/>
     <path id="svg_45" fill="#CDCBBF" d="m24.75733,6.25774c-0.44913,0.11988 -0.89576,0.24207 -1.34489,0.36196c-4.59107,1.23803 -7.65761,2.71814 -11.68229,5.10199c-1.09787,0.65014 -2.30053,1.8559 -2.69975,3.00633c-0.34683,1.00057 -0.49653,1.86743 -0.99556,2.81267c-0.3618,0.68472 -1.09038,1.07435 -1.88384,1.3487c0.18215,0.03689 0.36679,0.07377 0.56141,0.11758c0.98059,0.21441 1.97865,0.32277 2.96174,0.32277c4.28916,0 7.95952,-1.99884 11.35542,-4.04609c1.36485,-0.82536 2.36041,-1.59999 3.12143,-2.43457c1.4896,-1.62766 1.45966,-4.302 0.76851,-6.22937c-0.04242,-0.11988 -0.09981,-0.23977 -0.16218,-0.36196z"/>
    </g>
    <path id="svg_46" fill="#FAC11D" d="m0.75899,9.02429c-0.39423,0.83458 -0.57139,1.84898 -0.17217,2.71123c0.45162,0.97291 1.4896,1.06743 2.47768,1.27262c2.23066,0.4657 5.17993,1.41325 7.46299,0.93371c1.37732,-0.28818 2.71971,-1.13429 3.94234,-1.75907c2.92182,-1.49855 5.80621,-3.07549 8.83532,-4.39191c0.71611,-0.31124 2.65733,-0.74467 2.64985,-1.67838c-0.0025,-0.33199 0,-0.66397 0,-0.99596c0,-0.68242 -0.12725,-1.56541 -0.82589,-1.94812c-0.40421,-0.22132 -0.90823,-0.35274 -1.35487,-0.48415c-0.71112,-0.2098 -1.43222,-0.44034 -2.15082,-0.62017c-2.09343,-0.53026 -4.34405,-0.78616 -6.49487,-0.43343c-3.99723,0.65936 -7.54284,2.26166 -10.82396,4.4288c-0.94566,0.62248 -1.92875,1.21959 -2.75215,1.9827c-0.39922,0.36887 -0.64375,0.66628 -0.79346,0.98213z"/>
    <path id="svg_47" fill="none" d="m24.95445,2.98859c0.70613,0.85533 -3.45079,2.37924 -4.49875,2.89336c-1.72914,0.85072 -3.46327,1.79365 -5.26476,2.50374c-1.40227,0.55331 -2.31799,1.02132 -3.66038,1.68991c-0.21708,0.10836 -0.97311,0.69625 -1.16773,1.27492c-0.26948,0.80461 -0.37926,2.03573 -0.31938,2.87722"/>
    <path id="svg_48" fill="#E4A724" d="m25.1316,3.16611c-0.14721,-0.08069 -0.3069,-0.14524 -0.47158,-0.20749c0.32437,0.97982 -3.06903,2.068 -4.14195,2.50604c-2.32548,0.95216 -6.94899,2.59595 -8.70557,4.26972c-0.4616,0.44034 -1.44469,1.70374 -1.63682,2.28241c-0.24951,0.74005 -0.75353,1.74063 -2.03105,2.00114c0.83338,0.08069 1.6468,0.07608 2.38786,-0.07839c1.37732,-0.28818 2.71971,-1.13429 3.94234,-1.75907c2.92182,-1.49855 5.80621,-3.07549 8.83532,-4.39191c0.71611,-0.31124 2.65733,-0.74467 2.64985,-1.67838c-0.0025,-0.33199 0,-0.66397 0,-0.99596c-0.0025,-0.68242 -0.13224,-1.56541 -0.82839,-1.94812z"/>
    <path id="svg_49" fill="#2F2F2F" d="m7.53831,5.28252c1.73413,0.19366 3.29609,0.43573 5.38453,0.97291c2.20322,0.56714 2.99418,1.25187 3.26865,3.3314c0.27946,2.12103 0.72359,5.33715 -0.28445,7.36596c-0.26199,0.52334 -0.63626,1.04899 -1.03549,1.46166c0.30191,0.07377 2.66482,-0.69625 3.7053,-1.41556c1.72664,-1.19193 2.04103,-2.68356 2.06099,-4.5556c0.01996,-1.74524 -0.1547,-4.69162 -0.76352,-6.22245c-0.514,-1.29567 -1.9013,-1.76829 -3.22872,-2.14869c-0.95315,-0.27204 -3.05656,-0.8 -4.76573,-0.95446c-1.18021,-0.10836 -2.19324,0.0853 -2.43028,0.15908c-0.60383,0.18674 -1.76158,0.78616 -2.66981,1.28645c-0.65872,0.36426 -1.21015,0.69394 -1.21015,0.69394s0.91073,-0.09222 1.96867,0.02536z"/>
   </g>
   <g id="svg_50">
    <g id="svg_51">
     <path id="svg_52" fill="#E4E3DE" d="m31.38943,18.04788c-0.31439,-0.87608 -1.28001,-1.91354 -2.35792,-2.12794c-0.43915,-0.08761 -1.10286,-0.07608 -1.67924,-0.0415l-0.26698,0.01383c-1.24258,0.05764 -2.4677,0.27896 -3.50069,0.48876c-2.59495,0.52795 -5.53424,1.12507 -8.30386,1.98962c-0.21957,0.06916 -0.44663,0.13833 -0.67868,0.20749c-1.50707,0.45648 -3.21625,0.9706 -4.44137,1.97809c-0.71361,0.58789 -1.28001,1.41094 -1.63682,2.37463c-0.48905,1.32795 -0.56141,2.80114 -0.20211,4.14523c0.66371,2.49682 2.40283,2.85417 4.24425,3.23226c0.19712,0.03919 0.40421,0.08069 0.61381,0.1268c0.98059,0.21441 1.97865,0.32277 2.96174,0.32277c4.28916,0 7.95952,-1.99884 11.35542,-4.04609c1.36485,-0.82536 2.36041,-1.59999 3.12143,-2.43457c1.4921,-1.62996 1.46216,-4.302 0.771,-6.22937z"/>
     <path id="svg_53" fill="#CDCBBF" d="m31.22725,17.68593c-0.44913,0.11988 -0.89576,0.24207 -1.34489,0.36196c-4.59107,1.23803 -9.31439,2.53601 -13.04464,5.30257c-0.89576,0.66397 -1.76407,1.47089 -2.0036,2.50835c-0.23953,1.02593 0.16967,2.16714 -0.32936,3.11238c-0.3618,0.68472 -1.09038,1.07435 -1.88384,1.3487c0.18215,0.03689 0.36679,0.07377 0.56141,0.11758c0.98059,0.21441 1.97865,0.32277 2.96174,0.32277c4.28916,0 7.95952,-1.99884 11.35542,-4.04609c1.36485,-0.82536 2.36041,-1.59999 3.12143,-2.43457c1.4896,-1.62766 1.45966,-4.302 0.76851,-6.22937c-0.04242,-0.11988 -0.09731,-0.24207 -0.16218,-0.36426z"/>
    </g>
    <path id="svg_54" fill="#EC6C30" d="m7.20895,21.2617c-0.40172,1.09971 0.06487,2.25936 1.43471,2.18558c1.57693,-0.083 3.27364,-0.03919 4.82562,0.26052c1.04048,0.20058 2.05351,0.53487 3.09149,0.72853c0.56889,0.10605 1.28001,0.21671 1.87386,0.09683c0.49154,-0.09913 0.9257,-0.44265 1.36984,-0.65014c1.84142,-0.86224 3.56058,-1.88126 5.42445,-2.70201c1.15775,-0.50951 2.29803,-1.04899 3.44331,-1.57924c0.93818,-0.43343 2.45523,-0.78386 2.91184,-1.78443c1.04297,-2.26627 -2.32548,-4.01151 -4.23427,-4.44033c-2.12337,-0.47723 -4.70086,-0.64092 -6.83172,-0.15677c-1.56695,0.35504 -3.12393,0.78155 -4.61852,1.35792c-1.45966,0.56484 -2.64735,1.35792 -3.95731,2.13025c-1.36235,0.80461 -2.79457,1.83515 -3.82756,2.9948c-0.36679,0.41498 -0.68866,0.96599 -0.90574,1.55849z"/>
    <path id="svg_55" fill="#D65B29" d="m30.15434,14.5966c0.22706,0.35965 0.09232,1.02824 -0.17965,1.351c-0.46909,0.55792 -2.09093,1.20576 -2.65983,1.48011c-1.46715,0.70317 -5.05018,1.92737 -6.10812,2.56598c-1.19268,0.717 -2.90685,1.83284 -3.95731,2.71814c-0.85085,0.717 -1.70668,1.11585 -2.75464,1.23112c0.68866,0.17291 1.37233,0.36657 2.06598,0.49567c0.56889,0.10605 1.28001,0.21671 1.87386,0.09683c0.49154,-0.09913 0.9257,-0.44265 1.36984,-0.65014c1.84142,-0.86224 3.56058,-1.88126 5.42445,-2.70201c1.15775,-0.50951 2.29803,-1.04899 3.44331,-1.57924c0.93818,-0.43343 2.45523,-0.78386 2.91184,-1.78443c0.59634,-1.29337 -0.24452,-2.41613 -1.42972,-3.22304z"/>
    <path id="svg_56" fill="#F4865C" d="m24.48037,13.60986c1.10286,0.41498 1.9537,1.36253 2.19074,2.44149c0.01248,0.05303 0.02246,0.10836 0.00998,0.16369c-0.01747,0.07377 -0.08234,0.13372 -0.1522,0.17291c-0.257,0.13602 -0.59884,0.01614 -0.79845,-0.18674c-0.19961,-0.20288 -0.29942,-0.47031 -0.43166,-0.717c-0.19213,-0.35965 -0.45911,-0.68472 -0.78348,-0.94985c-0.14721,-0.11988 -0.31189,-0.23977 -0.37427,-0.41037c-0.06737,-0.17752 0.01996,-0.55792 0.33934,-0.51412z"/>
    <path id="svg_57" fill="#F4865C" d="m19.99658,14.05943c0.7735,0.72161 1.42723,1.55158 1.93125,2.45301c0.21957,0.39193 0.39673,0.91296 0.31189,1.3487c-0.08234,0.43343 -0.33685,0.65936 -0.79346,0.53026c-0.31439,-0.08069 -0.48156,-1.00288 -0.73108,-1.71527c-0.14472,-0.41268 -0.56141,-1.13198 -0.84336,-1.48011c-0.28195,-0.34813 -0.6662,-0.70778 -0.66121,-1.14351c-0.01996,-0.16369 0.29692,-0.32046 0.78597,0.00692z"/>
    <path id="svg_58" fill="#F4865C" d="m16.22641,15.16144c0.26199,0.12219 0.42667,0.34121 0.60133,0.55792c0.1023,0.12911 0.18714,0.26974 0.26948,0.41037c0.63876,1.07435 1.29748,2.24552 1.11533,3.4582c-0.02495,0.16599 -0.06986,0.3366 -0.17965,0.47262c-0.10979,0.13372 -0.29942,0.22363 -0.47657,0.18213c-0.23704,-0.07608 -0.36679,-0.86685 -0.54893,-1.29798c-0.07236,-0.1706 -0.14472,-0.34351 -0.2071,-0.51642c-0.28944,-0.79308 -0.39673,-1.64841 -0.82589,-2.38155c-0.10979,-0.18905 -0.24702,-0.38501 -0.22706,-0.59712c0.01497,-0.21902 0.29443,-0.41498 0.47907,-0.28818z"/>
    <path id="svg_59" fill="#F4865C" d="m12.11441,17.59832c0.02495,-0.39193 0.57139,-0.26974 0.68367,0.02075c0.17466,0.45187 0.24951,0.86455 0.52897,1.26801c0.50901,0.73083 0.64125,1.17118 0.62379,1.96887c-0.0025,0.13602 -0.00749,0.27666 -0.06986,0.40115c-0.14971,0.29971 -0.66121,0.36426 -0.89326,0.11066c-0.20959,-0.22824 -0.1522,-0.56714 -0.19213,-0.86455c-0.04741,-0.35504 -0.24452,-0.6732 -0.38924,-1.00288c-0.28195,-0.65706 -0.42917,-1.20576 -0.29193,-1.90201z"/>
   </g>
  </g>
 </g>
</svg>